<svg id="Layer_1" data-name="Layer 1" xmlns="http://www.w3.org/2000/svg" viewBox="0 0 825.65789 596"><defs><style>.cls-1{fill:#eae8ea;}.cls-2{fill:#fff;}.cls-3{fill:#d9cedb;}.cls-4{fill:none;stroke:#363a5a;stroke-linecap:round;stroke-linejoin:round;stroke-width:6px;}.cls-5{fill:#73e1ff;}.cls-6{fill:#48d8f9;}.cls-7{fill:#abefff;}.cls-8{fill:#76c526;}.cls-9{fill:#5fa412;}.cls-10{fill:#ff7d00;}.cls-11{fill:#ff6c22;}.cls-12{fill:#ff9636;}.cls-13{fill:#ff5b00;}.cls-14{fill:#ffce43;}.cls-15{fill:#ffb345;}</style></defs><ellipse class="cls-1" cx="412.82894" cy="531.5" rx="412.82894" ry="64.5"/><path class="cls-2" d="M630.08368,297H523.91632C495.24373,297,472,319.95345,472,348.268V709.85538A34.19574,34.19574,0,0,0,512.47257,743.392a18.0975,18.0975,0,0,0,3.69547-1.0623c20.42562-8.826,36.77866-20.58844,60.832-20.58844,24.054,0,40.407,11.76245,60.83261,20.58844a18.09583,18.09583,0,0,0,3.69483,1.06217A34.19554,34.19554,0,0,0,682,709.85526V348.268C682,319.95345,658.75627,297,630.08368,297Z" transform="translate(-68.34211 -212)"/><path class="cls-1" d="M630.0835,297h-28C630.75635,297,654,319.95343,654,348.26794V709.85522A34.26174,34.26174,0,0,1,634.31348,740.764q1.74169.79449,3.519,1.56567a18.101,18.101,0,0,0,3.69482,1.0622A34.19563,34.19563,0,0,0,682,709.85522V348.26794C682,319.95343,658.75635,297,630.0835,297Z" transform="translate(-68.34211 -212)"/><path class="cls-3" d="M549,721.74127c-22.65625,0-38.48193,10.43494-57.313,19.02289a33.53855,33.53855,0,0,0,20.78565,2.62787,18.09305,18.09305,0,0,0,3.69531-1.06232c16.21289-7.00561,29.86377-15.85522,46.832-19.2102A71.705,71.705,0,0,0,549,721.74127Z" transform="translate(-68.34211 -212)"/><path class="cls-4" d="M630.08368,297H523.91632C495.24373,297,472,319.95345,472,348.268V709.85538A34.19574,34.19574,0,0,0,512.47257,743.392a18.0975,18.0975,0,0,0,3.69547-1.0623c20.42562-8.826,36.77866-20.58844,60.832-20.58844,24.054,0,40.407,11.76245,60.83261,20.58844a18.09583,18.09583,0,0,0,3.69483,1.06217A34.19554,34.19554,0,0,0,682,709.85526V348.268C682,319.95345,658.75627,297,630.08368,297Z" transform="translate(-68.34211 -212)"/><rect class="cls-1" x="466.88225" y="71" width="84" height="14"/><rect class="cls-4" x="466.88225" y="71" width="84" height="14"/><path class="cls-2" d="M620.34853,283.333a781.3146,781.3146,0,0,1-86.24785,0,5.99822,5.99822,0,0,1-5.65233-5.99467q-.00105-17.36562-.00057-34.73123c.00031-11.04092,8.8267-22.01009,19.60683-24.39566a133.118,133.118,0,0,1,58.29788.03843c10.80026,2.38435,19.64735,13.34417,19.64705,24.40449q-.00048,17.342.00057,34.68394A5.99732,5.99732,0,0,1,620.34853,283.333Z" transform="translate(-68.34211 -212)"/><path class="cls-1" d="M625.99951,242.6543c.00049-11.06031-8.84668-22.02014-19.647-24.40448a133.97031,133.97031,0,0,0-38.28955-2.92847,137.58567,137.58567,0,0,1,20.28955,2.92847C599.15283,220.63416,608,231.594,607.99951,242.6543q-.00073,17.342.00049,34.684a5.99756,5.99756,0,0,1-5.65137,5.99469q-17.05077.94253-34.124,1.1289,26.06909.30039,52.124-1.1289A5.99685,5.99685,0,0,0,626,277.33826Q625.99926,259.99625,625.99951,242.6543Z" transform="translate(-68.34211 -212)"/><path class="cls-4" d="M620.34853,283.333a781.3146,781.3146,0,0,1-86.24785,0,5.99822,5.99822,0,0,1-5.65233-5.99467q-.00105-17.36562-.00057-34.73123c.00031-11.04092,8.8267-22.01009,19.60683-24.39566a133.118,133.118,0,0,1,58.29788.03843c10.80026,2.38435,19.64735,13.34417,19.64705,24.40449q-.00048,17.342.00057,34.68394A5.99732,5.99732,0,0,1,620.34853,283.333Z" transform="translate(-68.34211 -212)"/><path class="cls-5" d="M472,393V709.85535A34.19584,34.19584,0,0,0,512.47266,743.392a18.09305,18.09305,0,0,0,3.69531-1.06232c20.42578-8.826,36.77881-20.58844,60.832-20.58844,24.05371,0,40.40723,11.76245,60.83252,20.58844a18.101,18.101,0,0,0,3.69482,1.0622A34.19563,34.19563,0,0,0,682,709.85522V393Z" transform="translate(-68.34211 -212)"/><path class="cls-6" d="M653,393V695.85522a34.19563,34.19563,0,0,1-40.47266,33.53669,18.101,18.101,0,0,1-3.69482-1.0622c-20.42529-8.826-36.77881-20.58844-60.83252-20.58844-24.05322,0-40.40625,11.76245-60.832,20.58844a18.09305,18.09305,0,0,1-3.69531,1.06232,34.11241,34.11241,0,0,1-4.86866.566,33.997,33.997,0,0,0,33.86866,13.434,18.09305,18.09305,0,0,0,3.69531-1.06232c20.42578-8.826,36.77881-20.58844,60.832-20.58844,24.05371,0,40.40723,11.76245,60.83252,20.58844a18.101,18.101,0,0,0,3.69482,1.0622A34.19563,34.19563,0,0,0,682,709.85522V393Z" transform="translate(-68.34211 -212)"/><path class="cls-4" d="M472,393V709.85535A34.19584,34.19584,0,0,0,512.47266,743.392a18.09305,18.09305,0,0,0,3.69531-1.06232c20.42578-8.826,36.77881-20.58844,60.832-20.58844,24.05371,0,40.40723,11.76245,60.83252,20.58844a18.101,18.101,0,0,0,3.69482,1.0622A34.19563,34.19563,0,0,0,682,709.85522V393Z" transform="translate(-68.34211 -212)"/><line class="cls-4" x1="480.65789" y1="46" x2="480.65789" y2="71"/><line class="cls-4" x1="499.65789" y1="46" x2="499.65789" y2="71"/><line class="cls-4" x1="518.65789" y1="46" x2="518.65789" y2="71"/><line class="cls-4" x1="537.65789" y1="46" x2="537.65789" y2="71"/><circle class="cls-7" cx="459.65789" cy="269" r="12"/><circle class="cls-7" cx="531.65789" cy="321" r="8"/><circle class="cls-7" cx="483.65789" cy="383" r="6"/><circle class="cls-7" cx="509.65789" cy="247" r="6"/><line class="cls-4" x1="583.65789" y1="208" x2="583.65789" y2="354"/><path class="cls-8" d="M178.9951,447.81626a109.21989,109.21989,0,0,0-24.94866,4.26947c-.0734,2.865-.06982,5.74723.084,8.6578A108.97886,108.97886,0,0,0,293.687,559.57689c.0734-2.865.06982-5.74723-.084-8.6578A109.00766,109.00766,0,0,0,178.9951,447.81626Z" transform="translate(-68.34211 -212)"/><path class="cls-4" d="M178.9951,447.81626a109.21989,109.21989,0,0,0-24.94866,4.26947c-.0734,2.865-.06982,5.74723.084,8.6578A108.97886,108.97886,0,0,0,293.687,559.57689c.0734-2.865.06982-5.74723-.084-8.6578A109.00766,109.00766,0,0,0,178.9951,447.81626Z" transform="translate(-68.34211 -212)"/><path class="cls-8" d="M373.36806,425.72153a95.45457,95.45457,0,0,0-7.35647-20.86215c-2.47888.35922-4.96116.78727-7.44576,1.34893A95.24357,95.24357,0,0,0,294.00437,541c2.47888-.35922,4.96117-.78727,7.44576-1.34893A95.26874,95.26874,0,0,0,373.36806,425.72153Z" transform="translate(-68.34211 -212)"/><path class="cls-9" d="M373.3682,425.7215a94.72145,94.72145,0,0,0-3.28272-11.21894,95.29751,95.29751,0,0,1-74.18506,97.1485c-2.48486.56165-4.96728.98969-7.4458,1.34894a96.40514,96.40514,0,0,1-4.07275-9.642A95.58217,95.58217,0,0,0,294.00443,541c2.479-.35925,4.96094-.78729,7.4458-1.34894A95.269,95.269,0,0,0,373.3682,425.7215Z" transform="translate(-68.34211 -212)"/><path class="cls-4" d="M373.36806,425.72153a95.45457,95.45457,0,0,0-7.35647-20.86215c-2.47888.35922-4.96116.78727-7.44576,1.34893A95.24357,95.24357,0,0,0,294.00437,541c2.47888-.35922,4.96117-.78727,7.44576-1.34893A95.26874,95.26874,0,0,0,373.36806,425.72153Z" transform="translate(-68.34211 -212)"/><path class="cls-4" d="M337.73343,457s-22.45812,29-43.72906,84" transform="translate(-68.34211 -212)"/><path class="cls-4" d="M200.73343,490s63.90713,61.15378,92.95356,69.57689" transform="translate(-68.34211 -212)"/><path class="cls-10" d="M403.26177,634.5a112.50139,112.50139,0,1,1-224.95258-3.36175c1.64506-58.24769,45.92262-106.0949,105.17431-101.01932a109.43663,109.43663,0,0,0,14.38819.321C357.42163,527.69129,403.26177,574.72609,403.26177,634.5Z" transform="translate(-68.34211 -212)"/><path class="cls-11" d="M375.13382,561.34045a120.45058,120.45058,0,0,1,7.27637,41.57166A122.59764,122.59764,0,0,1,212.98441,715.95135,112.62725,112.62725,0,0,0,403.26175,634.5C403.26175,605.81274,392.69876,580.06421,375.13382,561.34045Z" transform="translate(-68.34211 -212)"/><path class="cls-11" d="M352,544c-40,11-66.49892,51.11768-73,95-4,27,13,92,61.56055,96.40167A112.49982,112.49982,0,0,0,403.26172,634.5C403.26172,592.52649,386.08154,560.58374,352,544Z" transform="translate(-68.34211 -212)"/><path class="cls-4" d="M403.26177,634.5a112.50139,112.50139,0,1,1-224.95258-3.36175c1.64506-58.24769,45.92262-106.0949,105.17431-101.01932a109.43663,109.43663,0,0,0,14.38819.321C357.42163,527.69129,403.26177,574.72609,403.26177,634.5Z" transform="translate(-68.34211 -212)"/><path class="cls-12" d="M212.99609,596.001a5.0017,5.0017,0,0,1-4.44238-7.28809c19.00879-36.96094,56.31543-41.50684,57.89453-41.68262a5,5,0,0,1,1.11621,9.9375h0c-1.36523.15918-33.625,4.249-50.11816,36.31934A5.00006,5.00006,0,0,1,212.99609,596.001Z" transform="translate(-68.34211 -212)"/><circle class="cls-12" cx="147.65789" cy="415" r="4"/><circle class="cls-12" cx="177.65789" cy="489" r="4"/><circle class="cls-12" cx="149.65789" cy="460" r="6"/><circle class="cls-12" cx="194.15789" cy="435.5" r="3.5"/><circle class="cls-10" cx="335.62715" cy="427.23583" r="107.76417"/><path class="cls-13" d="M461.69728,548.22668A107.76816,107.76816,0,0,1,324.7129,712.24493,107.76515,107.76515,0,1,0,461.69728,548.22668Z" transform="translate(-68.34211 -212)"/><circle class="cls-2" cx="335.62715" cy="427.23583" r="96.23583"/><path class="cls-1" d="M500.145,635.99939q-.01391-.41638-.03173-.83179c-.04053-.9779-.09278-1.95288-.1626-2.923-.00733-.10047-.01172-.20172-.019-.30207-.08007-1.06555-.18164-2.125-.29589-3.1806-.02686-.24792-.05616-.495-.085-.74243q-.16407-1.41192-.3667-2.81171c-.01856-.12829-.03467-.25732-.0542-.38543q-.23877-1.58991-.53125-3.16187c-.03614-.19452-.07471-.38806-.11182-.58209q-.27027-1.4154-.58057-2.81641c-.02783-.12494-.05371-.25067-.082-.37536q-.36034-1.5921-.77392-3.16382c-.03076-.11609-.063-.23132-.09424-.34723q-.39111-1.46512-.82617-2.91168c-.03076-.10315-.06055-.20685-.0918-.30988q-.4878-1.59924-1.02734-3.17541l-.01368-.03931q-.53466-1.55265-1.12109-3.08c-.02783-.07293-.05518-.14618-.083-.219q-1.20849-3.13295-2.62549-6.15766c-.019-.0415-.03857-.08313-.0581-.12457q-1.43628-3.05612-3.07764-5.99243l-.02832-.05054q-1.656-2.95962-3.51123-5.788l-.001-.001A107.84054,107.84054,0,0,1,366.22951,727.78632l.002.00079a95.55452,95.55452,0,0,0,13.47754,4.598l.02441.00665q1.13013.29343,2.27149.55927l.06591.016q1.10157.25653,2.21338.48621c.04981.01031.09864.022.14844.03229.71192.14691,1.42774.28363,2.145.41467.07959.01446.15772.03113.23682.04541.70117.12622,1.40576.242,2.11181.353.0962.01507.19092.03271.28662.04748.66163.10187,1.32666.19312,1.99268.28143.144.01911.28662.04175.43018.06018.64111.082,1.28515.15314,1.92968.22254.16895.01813.33643.04046.50489.05774.61328.06268,1.229.11413,1.84521.16528.20313.01685.40527.03851.60889.05408.582.04461,1.16748.078,1.75244.11212.23926.01392.47705.03314.71631.04535.60351.03076,1.20947.05005,1.81543.06964.22217.00714.44287.01959.665.02527q1.24438.03168,2.4956.03186a96.14,96.14,0,0,0,87.73487-56.63123q.96313-2.13153,1.82568-4.31732,1.29273-3.27786,2.34863-6.66968a95.54124,95.54124,0,0,0,2.82373-11.58221q.42335-2.36965.72949-4.77844a97.15738,97.15738,0,0,0,.77344-12.2569C500.20509,638.15222,500.18068,637.07434,500.145,635.99939Z" transform="translate(-68.34211 -212)"/><circle class="cls-4" cx="335.62715" cy="427.23583" r="107.76417"/><path class="cls-14" d="M427.65917,625.95983a27.01,27.01,0,0,0-3.19306-4.51835,13.02522,13.02522,0,0,1-1.62114-15.07936l16.56429-28.81538a12.90409,12.90409,0,0,1,19.48821-3.44918,84.87886,84.87886,0,0,1,24.95617,35.41794,12.902,12.902,0,0,1-9.83485,17.18272l-32.742,5.8432A13.02962,13.02962,0,0,1,427.65917,625.95983Z" transform="translate(-68.34211 -212)"/><path class="cls-14" d="M380.27936,652.51183a27.01,27.01,0,0,0,3.19305,4.51835,13.02521,13.02521,0,0,1,1.62115,15.07935l-16.5643,28.81539a12.90408,12.90408,0,0,1-19.48821,3.44918,84.87884,84.87884,0,0,1-24.95616-35.41794,12.902,12.902,0,0,1,9.83484-17.18272l32.74195-5.8432A13.02962,13.02962,0,0,1,380.27936,652.51183Z" transform="translate(-68.34211 -212)"/><path class="cls-14" d="M404.29734,612.08153a27.01056,27.01056,0,0,0-5.50917.51,13.0252,13.0252,0,0,1-13.87409-6.12575L368.22071,577.725a12.90408,12.90408,0,0,1,6.74365-18.60673,84.879,84.879,0,0,1,43.1481-3.93473A12.902,12.902,0,0,1,428.088,572.285l-11.28812,31.28509A13.02962,13.02962,0,0,1,404.29734,612.08153Z" transform="translate(-68.34211 -212)"/><path class="cls-14" d="M403.64119,666.39013a27.01069,27.01069,0,0,0,5.50917-.51,13.02519,13.02519,0,0,1,13.87408,6.12575l16.69338,28.7408a12.90409,12.90409,0,0,1-6.74365,18.60673,84.879,84.879,0,0,1-43.1481,3.93473,12.902,12.902,0,0,1-9.97555-17.10142l11.28813-31.28509A13.02961,13.02961,0,0,1,403.64119,666.39013Z" transform="translate(-68.34211 -212)"/><path class="cls-14" d="M380.6352,625.34391a27.01022,27.01022,0,0,0-2.31946,5.02307,13.02521,13.02521,0,0,1-12.25384,8.93635l-33.237.04286a12.90409,12.90409,0,0,1-12.72219-15.16026,84.87892,84.87892,0,0,1,18.2181-39.31083,12.902,12.902,0,0,1,19.79813-.06237l21.41623,25.44648A13.02961,13.02961,0,0,1,380.6352,625.34391Z" transform="translate(-68.34211 -212)"/><path class="cls-14" d="M427.30332,653.12775a27.0109,27.0109,0,0,0,2.31947-5.02307,13.02519,13.02519,0,0,1,12.25384-8.93635l33.237-.04286a12.90409,12.90409,0,0,1,12.72218,15.16026,84.87882,84.87882,0,0,1-18.2181,39.31083,12.902,12.902,0,0,1-19.79813.06237l-21.41623-25.44648A13.02961,13.02961,0,0,1,427.30332,653.12775Z" transform="translate(-68.34211 -212)"/><path class="cls-14" d="M424.46632,621.44147a27.03238,27.03238,0,0,1,3.19287,4.51837,13.02951,13.02951,0,0,0,13.61768,6.58154l32.7417-5.8432a12.90185,12.90185,0,0,0,9.835-17.18268,84.87715,84.87715,0,0,0-24.95605-35.418,12.90419,12.90419,0,0,0-19.48829,3.44922l-16.56445,28.81537A13.02534,13.02534,0,0,0,424.46632,621.44147Z" transform="translate(-68.34211 -212)"/><path class="cls-14" d="M363.20509,678a31.48577,31.48577,0,0,1,14.74854,6.52985l7.14013-12.42035a13.02525,13.02525,0,0,0-1.62109-15.07935,27.00972,27.00972,0,0,1-3.19336-4.51831,13.02961,13.02961,0,0,0-13.61767-6.5816l-20.86426,3.72345C347.33888,671.71368,352.15675,676.42163,363.20509,678Z" transform="translate(-68.34211 -212)"/><path class="cls-14" d="M384.91408,606.46582a13.02521,13.02521,0,0,0,13.874,6.12573,27.01052,27.01052,0,0,1,5.50928-.51,13.02909,13.02909,0,0,0,12.50244-8.51147L428.0879,572.285a12.902,12.902,0,0,0-9.97558-17.10144,84.87891,84.87891,0,0,0-43.148,3.93476,12.90409,12.90409,0,0,0-6.74365,18.60675Z" transform="translate(-68.34211 -212)"/><path class="cls-14" d="M423.02443,672.0058a13.02521,13.02521,0,0,0-13.874-6.12573,27.01041,27.01041,0,0,1-5.50927.51007,13.02948,13.02948,0,0,0-12.50244,8.51141l-5.875,16.28278A65.36188,65.36188,0,0,0,390.20509,696c5,4,24,6,24,9,0,2.12146,3.49854,12.23822,5.54883,17.985a85.14706,85.14706,0,0,0,13.22022-3.63166,12.9041,12.9041,0,0,0,6.74365-18.60675Z" transform="translate(-68.34211 -212)"/><path class="cls-14" d="M345.20509,628c0,4.11432.04248,7.87122.12891,11.33008l20.728-.02674a13.02569,13.02569,0,0,0,12.2539-8.9364,26.99063,26.99063,0,0,1,2.31934-5.02307,13.03026,13.03026,0,0,0-1.1001-15.08465l-21.416-25.44654a12.90229,12.90229,0,0,0-19.79834.06238,84.79969,84.79969,0,0,0-10.80712,16.708C336.85451,603.32544,345.20509,609.93286,345.20509,628Z" transform="translate(-68.34211 -212)"/><path class="cls-14" d="M475.11378,639.12549l-33.2373.04284a13.02451,13.02451,0,0,0-12.25342,8.93635,27.02346,27.02346,0,0,1-2.31982,5.02307,13.03033,13.03033,0,0,0,1.10009,15.08471l21.416,25.44648a12.90225,12.90225,0,0,0,19.79834-.06238A84.87989,84.87989,0,0,0,487.836,654.28571,12.90416,12.90416,0,0,0,475.11378,639.12549Z" transform="translate(-68.34211 -212)"/><path class="cls-15" d="M324.085,668.95612a84.87688,84.87688,0,0,0,24.95605,35.418,12.90416,12.90416,0,0,0,19.48828-3.44915l9.42432-16.39508A31.48577,31.48577,0,0,0,363.20509,678c-11.04834-1.57837-15.86621-6.28632-17.40771-28.34631l-11.87744,2.11975A12.90187,12.90187,0,0,0,324.085,668.95612Z" transform="translate(-68.34211 -212)"/><path class="cls-15" d="M390.20509,696a65.36188,65.36188,0,0,1-4.9414-4.81567l-5.41309,15.00232a12.902,12.902,0,0,0,9.97559,17.10144,84.80364,84.80364,0,0,0,29.92773-.3031C417.70363,717.23822,395.20509,700,390.20509,696Z" transform="translate(-68.34211 -212)"/><path class="cls-15" d="M332.82472,639.34619l12.50928-.01611c-.08643-3.45886-.12891-7.21576-.12891-11.33008,0-18.06714-8.35058-24.67456-17.6914-26.41693a85.01989,85.01989,0,0,0-7.41114,22.60284A12.90424,12.90424,0,0,0,332.82472,639.34619Z" transform="translate(-68.34211 -212)"/></svg>