<svg id="Layer_1" data-name="Layer 1" xmlns="http://www.w3.org/2000/svg" viewBox="0 0 394 371.78686"><defs><style>.cls-1{fill:#202b52;}.cls-2{fill:#3a4775;}.cls-3{fill:#3bceff;}.cls-4{fill:#2fafdc;}.cls-16,.cls-5{fill:none;stroke-linecap:round;stroke-linejoin:round;}.cls-5{stroke:#202b52;stroke-width:6px;}.cls-6{fill:#12b0ff;}.cls-7{fill:#129be5;}.cls-8{fill:#5392ff;}.cls-9{fill:#487fdf;}.cls-10{fill:#f8d96b;}.cls-11{fill:#f2b955;}.cls-12{fill:#fc3a4d;}.cls-13{fill:#e82e4a;}.cls-14{fill:#87d14b;}.cls-15{fill:#79ba3a;}.cls-16{stroke:#fff;stroke-width:3px;}.cls-17{fill:#78d698;}.cls-18{fill:#5bc47b;}.cls-19{fill:#e17555;}.cls-20{fill:#e45e5b;}.cls-21{fill:#9e3b53;}.cls-22{fill:#883042;}.cls-23{fill:#53325a;}.cls-24{fill:#4a2d51;}.cls-25{fill:#fdba4f;}.cls-26{fill:#e89d3a;}</style></defs><rect class="cls-1" x="38" y="57.54081" width="318" height="8"/><rect class="cls-2" x="38" y="49.54081" width="318" height="8"/><rect class="cls-1" x="38" y="136" width="318" height="8"/><rect class="cls-2" x="38" y="128" width="318" height="8"/><rect class="cls-1" x="38" y="217.55127" width="318" height="8"/><rect class="cls-2" x="38" y="209.55127" width="318" height="8"/><rect class="cls-1" x="38" y="311.54032" width="318" height="8"/><rect class="cls-2" x="38" y="303.54033" width="318" height="8"/><circle class="cls-3" cx="99.66667" cy="57.54077" r="27"/><path class="cls-4" d="M415.0054,390.64733a26.99976,26.99976,0,0,1-25.04554-37.08539,26.99915,26.99915,0,1,0,45.09107,28.17078A26.92936,26.92936,0,0,1,415.0054,390.64733Z" transform="translate(-310.33871 -314.10658)"/><circle class="cls-5" cx="99.66667" cy="57.54077" r="27"/><circle class="cls-6" cx="164.66667" cy="57.54077" r="27"/><path class="cls-7" d="M480.0054,390.64733a26.99976,26.99976,0,0,1-25.04554-37.08539,26.99915,26.99915,0,1,0,45.09107,28.17078A26.92936,26.92936,0,0,1,480.0054,390.64733Z" transform="translate(-310.33871 -314.10658)"/><circle class="cls-5" cx="164.66667" cy="57.54077" r="27"/><circle class="cls-8" cx="228.66667" cy="57.54077" r="27"/><path class="cls-9" d="M544.0054,390.64733a26.99976,26.99976,0,0,1-25.04554-37.08539,26.99915,26.99915,0,1,0,45.09107,28.17078A26.92936,26.92936,0,0,1,544.0054,390.64733Z" transform="translate(-310.33871 -314.10658)"/><circle class="cls-5" cx="228.66667" cy="57.54077" r="27"/><circle class="cls-10" cx="197" cy="136" r="27"/><path class="cls-11" d="M513.33871,470.10656a26.99968,26.99968,0,0,1-23.19849-40.81372,26.99992,26.99992,0,1,0,40.397,34.62744A26.88894,26.88894,0,0,1,513.33871,470.10656Z" transform="translate(-310.33871 -314.10658)"/><circle class="cls-5" cx="197" cy="136" r="27"/><circle class="cls-12" cx="297.74912" cy="136" r="27"/><path class="cls-13" d="M614.08785,470.10656a26.99968,26.99968,0,0,1-23.19842-40.81384,26.99994,26.99994,0,1,0,40.39691,34.62756A26.88894,26.88894,0,0,1,614.08785,470.10656Z" transform="translate(-310.33871 -314.10658)"/><circle class="cls-5" cx="297.74912" cy="136" r="27"/><circle class="cls-14" cx="99.66666" cy="217.55127" r="27"/><path class="cls-15" d="M416.0054,551.65783a26.99968,26.99968,0,0,1-23.19849-40.81372,26.99992,26.99992,0,1,0,40.397,34.62744A26.88892,26.88892,0,0,1,416.0054,551.65783Z" transform="translate(-310.33871 -314.10658)"/><path class="cls-16" d="M427.00537,531.65723a17.019,17.019,0,0,0-17-17" transform="translate(-310.33871 -314.10658)"/><circle class="cls-5" cx="99.66666" cy="217.55127" r="27"/><circle class="cls-17" cx="170" cy="217.55127" r="27"/><circle class="cls-17" cx="170" cy="217.55127" r="27"/><path class="cls-18" d="M486.33871,551.65783a26.99968,26.99968,0,0,1-23.19849-40.81372,26.99992,26.99992,0,1,0,40.397,34.62744A26.88894,26.88894,0,0,1,486.33871,551.65783Z" transform="translate(-310.33871 -314.10658)"/><path class="cls-16" d="M497.33887,531.65723a17.019,17.019,0,0,0-17-17" transform="translate(-310.33871 -314.10658)"/><circle class="cls-5" cx="170" cy="217.55127" r="27"/><circle class="cls-19" cx="141" cy="311.54077" r="27"/><path class="cls-20" d="M457.33871,645.64733a26.99968,26.99968,0,0,1-23.19849-40.81372,26.99992,26.99992,0,1,0,40.397,34.62744A26.88894,26.88894,0,0,1,457.33871,645.64733Z" transform="translate(-310.33871 -314.10658)"/><path class="cls-16" d="M468.33887,625.64648a17.019,17.019,0,0,0-17-17" transform="translate(-310.33871 -314.10658)"/><circle class="cls-5" cx="141" cy="311.54077" r="27"/><circle class="cls-21" cx="202.33871" cy="311.54077" r="27"/><path class="cls-22" d="M518.67739,645.64733a26.99967,26.99967,0,0,1-23.19848-40.81372,26.99992,26.99992,0,1,0,40.39691,34.62756A26.88889,26.88889,0,0,1,518.67739,645.64733Z" transform="translate(-310.33871 -314.10658)"/><path class="cls-16" d="M529.67773,625.64648a17.019,17.019,0,0,0-17-17" transform="translate(-310.33871 -314.10658)"/><circle class="cls-5" cx="202.33871" cy="311.54077" r="27"/><circle class="cls-23" cx="313.15486" cy="311.54077" r="27"/><path class="cls-24" d="M629.49356,645.64733a26.99968,26.99968,0,0,1-23.19849-40.81372,26.99992,26.99992,0,1,0,40.397,34.62744A26.88892,26.88892,0,0,1,629.49356,645.64733Z" transform="translate(-310.33871 -314.10658)"/><path class="cls-16" d="M640.49414,625.64648a17.019,17.019,0,0,0-17-17" transform="translate(-310.33871 -314.10658)"/><circle class="cls-5" cx="313.15486" cy="311.54077" r="27"/><rect class="cls-25" x="3" y="3" width="36" height="365.78686" rx="17.99998"/><path class="cls-26" d="M328.33871,664.89342V335.10656a17.98783,17.98783,0,0,1,10.5-16.34772,17.97259,17.97259,0,0,0-25.5,16.34772V664.89342a17.97259,17.97259,0,0,0,25.5,16.34772A17.98775,17.98775,0,0,1,328.33871,664.89342Z" transform="translate(-310.33871 -314.10658)"/><rect class="cls-25" x="355" y="3" width="36" height="365.78686" rx="17.99998"/><path class="cls-26" d="M680.33871,664.89342V335.10656a17.98783,17.98783,0,0,1,10.5-16.34772,17.97259,17.97259,0,0,0-25.5,16.34772V664.89342a17.97259,17.97259,0,0,0,25.5,16.34772A17.98775,17.98775,0,0,1,680.33871,664.89342Z" transform="translate(-310.33871 -314.10658)"/><rect class="cls-5" x="3" y="3" width="36" height="365.78686" rx="17.99998"/><rect class="cls-5" x="355" y="3" width="36" height="365.78686" rx="17.99998"/><path class="cls-16" d="M427.00537,371.64746a17.019,17.019,0,0,0-17-17" transform="translate(-310.33871 -314.10658)"/><path class="cls-16" d="M492.00586,371.64746a17.01943,17.01943,0,0,0-17.00049-17" transform="translate(-310.33871 -314.10658)"/><path class="cls-16" d="M556.00586,371.64746a17.019,17.019,0,0,0-17-17" transform="translate(-310.33871 -314.10658)"/><path class="cls-16" d="M539.0057,352.64739" transform="translate(-310.33871 -314.10658)"/><path class="cls-16" d="M524.33887,450.10645a17.019,17.019,0,0,0-17-17" transform="translate(-310.33871 -314.10658)"/><path class="cls-16" d="M625.08789,450.10645a17.019,17.019,0,0,0-17-17" transform="translate(-310.33871 -314.10658)"/></svg>