<svg xmlns="http://www.w3.org/2000/svg" viewBox="0 0 912.40154 490.23068"><defs><style>.cls-1{isolation:isolate;}.cls-19,.cls-2{fill:#ff6550;}.cls-3{fill:#ff7364;opacity:0.4;mix-blend-mode:multiply;}.cls-4{fill:none;stroke:#00233a;stroke-linecap:round;stroke-linejoin:round;stroke-width:10px;}.cls-5{fill:#e97e1c;}.cls-20,.cls-6{fill:#e8531f;}.cls-6{opacity:0.74;}.cls-11,.cls-7{fill:#ffb845;}.cls-8{fill:#d89535;opacity:0.53;}.cls-13,.cls-9{fill:#ef8c3a;}.cls-20,.cls-9{opacity:0.6;}.cls-10{fill:#ffd766;}.cls-11{opacity:0.38;}.cls-12{fill:#ff9f48;}.cls-14{fill:#00233a;}.cls-15{fill:#81440e;}.cls-16{fill:#663717;}.cls-17{fill:#a05720;}.cls-18{fill:#ef4d3c;}.cls-19{opacity:0.91;mix-blend-mode:screen;}</style></defs><g class="cls-1"><g id="Layer_1" data-name="Layer 1"><path class="cls-2" d="M801.95519,613.81731H801.955c-26.72382.20324-46.70307-12.809-63.31647-30.9303a72.10689,72.10689,0,0,1-9.062-13.76723,129.66849,129.66849,0,0,1-11.61514-88.1921c10.72185-49.018,34.1221-136.811,74.76384-201.01377a10.94,10.94,0,0,1,18.45969,0c40.64151,64.20263,64.04183,151.99548,74.76376,201.01353A129.66779,129.66779,0,0,1,874.33341,569.12a72.10725,72.10725,0,0,1-9.06181,13.76681C848.65819,601.00792,828.67907,614.02019,801.95519,613.81731Z" transform="translate(-38.54903 -269.84702)"/><path class="cls-3" d="M884.94863,480.92743c-10.72192-49.01807-34.12219-136.81091-74.76373-201.01355a10.947,10.947,0,0,0-14.265-3.84876,35.69477,35.69477,0,0,1,9.4444,12.00507c31.05963,63.43439,50.00482,136.01245,59.60156,179.92938a141.45838,141.45838,0,0,1-12.3504,95.4148,80.442,80.442,0,0,1-10.2821,15.77008c-15.63141,17.05-33.99512,29.9505-57.43976,33.0628a75.459,75.459,0,0,0,16.06128,1.57007h.00024c26.72388.20288,46.703-12.80939,63.31641-30.93054A72.10715,72.10715,0,0,0,873.3334,569.12,129.6676,129.6676,0,0,0,884.94863,480.92743Z" transform="translate(-38.54903 -269.84702)"/><path class="cls-4" d="M801.95519,613.81731H801.955c-26.72382.20324-46.70307-12.809-63.31647-30.9303a72.10689,72.10689,0,0,1-9.062-13.76723,129.66849,129.66849,0,0,1-11.61514-88.1921c10.72185-49.018,34.1221-136.811,74.76384-201.01377a10.94,10.94,0,0,1,18.45969,0c40.64151,64.20263,64.04183,151.99548,74.76376,201.01353A129.66779,129.66779,0,0,1,874.33341,569.12a72.10725,72.10725,0,0,1-9.06181,13.76681C848.65819,601.00792,828.67907,614.02019,801.95519,613.81731Z" transform="translate(-38.54903 -269.84702)"/><line class="cls-4" x1="763.40603" y1="287.14728" x2="805.48268" y2="256.81965"/><line class="cls-4" x1="763.40601" y1="245.15298" x2="725.98666" y2="216.15298"/><rect class="cls-5" x="572.40603" y="183.72694" width="132" height="188.18542" rx="34.09271"/><path class="cls-6" d="M707.86239,453.57391h-15A34.0927,34.0927,0,0,1,726.955,487.66663v120a34.09266,34.09266,0,0,1-34.09265,34.09271h15A34.09266,34.09266,0,0,0,741.955,607.66663v-120A34.0927,34.0927,0,0,0,707.86239,453.57391Z" transform="translate(-38.54903 -269.84702)"/><rect class="cls-4" x="572.40603" y="183.72694" width="132" height="188.18542" rx="34.09271"/><line class="cls-4" x1="638.40603" y1="343.97264" x2="666.40603" y2="318.15298"/><line class="cls-4" x1="638.40603" y1="301.15298" x2="607.40603" y2="287.14728"/><line class="cls-4" x1="763.40603" y1="456.15298" x2="763.40603" y2="174.15298"/><line class="cls-4" x1="638.40603" y1="257.15298" x2="638.40603" y2="456.15298"/><ellipse class="cls-7" cx="164.1523" cy="184.96757" rx="60" ry="160"/><path class="cls-8" d="M202.70132,294.81458q-.788,0-1.57105.0545c27.68927,14.19165,48.60974,79.12933,48.60974,157.108,0,86.96472-26.01812,157.72394-58.429,159.9455a24.79153,24.79153,0,0,0,11.39026,2.892c33.13708,0,60-71.63447,60-160S235.8384,294.81458,202.70132,294.81458Z" transform="translate(-38.54903 -269.84702)"/><ellipse class="cls-4" cx="164.1523" cy="184.96757" rx="60" ry="160"/><line class="cls-4" x1="163.85767" y1="132.15298" x2="163.85767" y2="445.15298"/><line class="cls-4" x1="164.1523" y1="230.15298" x2="187.85767" y2="199.15298"/><line class="cls-4" x1="164.1523" y1="291.15298" x2="138.52433" y2="264.48632"/><line class="cls-4" x1="163.85767" y1="184.48632" x2="143.191" y2="161.15298"/><circle class="cls-9" cx="194.191" cy="158.7379" r="8.33333"/><circle class="cls-10" cx="138.52433" cy="120.1163" r="5.29665"/><circle class="cls-10" cx="173.07738" cy="108.74272" r="4.51637"/><circle class="cls-11" cx="609.26183" cy="224.84212" r="10.18914"/><circle class="cls-11" cx="641.24664" cy="230.7197" r="7.31155"/><circle class="cls-6" cx="609.26183" cy="321.6457" r="7.31155"/><circle class="cls-6" cx="662.9285" cy="263.24755" r="6.09457"/><circle class="cls-9" cx="132.45097" cy="214.65298" r="8.33333"/><circle class="cls-9" cx="151.191" cy="90.48632" r="8.33333"/><circle class="cls-9" cx="188.191" cy="256.48632" r="8.33333"/><circle class="cls-12" cx="217.74042" cy="85.46732" r="23.21609"/><path class="cls-13" d="M256.28945,332.09821c-.17444,0-.34649.00927-.52.01312a23.21285,23.21285,0,0,1-11.46,43.09161,23.21691,23.21691,0,1,0,11.98-43.10473Z" transform="translate(-38.54903 -269.84702)"/><circle class="cls-4" cx="217.74042" cy="85.46732" r="23.21609"/><path class="cls-2" d="M643.51528,726a47.279,47.279,0,0,1,94.55808,0Z" transform="translate(-38.54903 -269.84702)"/><path class="cls-3" d="M690.79431,678.721a47.43877,47.43877,0,0,0-13.9635,2.089A47.20465,47.20465,0,0,1,710.1463,726h27.92706A47.20878,47.20878,0,0,0,690.79431,678.721Z" transform="translate(-38.54903 -269.84702)"/><path class="cls-4" d="M643.51528,726a47.279,47.279,0,0,1,94.55808,0Z" transform="translate(-38.54903 -269.84702)"/><path class="cls-7" d="M714.89052,726a31.33321,31.33321,0,0,1,62.66642,0Z" transform="translate(-38.54903 -269.84702)"/><path class="cls-8" d="M746.22375,694.66675a31.52737,31.52737,0,0,0-7.17694.83172A31.27787,31.27787,0,0,1,763.20312,726H777.557A31.2867,31.2867,0,0,0,746.22375,694.66675Z" transform="translate(-38.54903 -269.84702)"/><path class="cls-4" d="M714.89052,726a31.33321,31.33321,0,0,1,62.66642,0Z" transform="translate(-38.54903 -269.84702)"/><path class="cls-7" d="M787.62159,726a22.83334,22.83334,0,0,1,45.66667,0Z" transform="translate(-38.54903 -269.84702)"/><path class="cls-4" d="M787.62159,726a22.83334,22.83334,0,0,1,45.66667,0Z" transform="translate(-38.54903 -269.84702)"/><path class="cls-7" d="M234.74,726a22.83334,22.83334,0,0,1,45.66667,0Z" transform="translate(-38.54903 -269.84702)"/><path class="cls-4" d="M234.74,726a22.83334,22.83334,0,0,1,45.66667,0Z" transform="translate(-38.54903 -269.84702)"/><path class="cls-14" d="M349.9067,726a14.60018,14.60018,0,1,1,29.20036,0Z" transform="translate(-38.54903 -269.84702)"/><path class="cls-14" d="M324.26423,724.73552a12.07124,12.07124,0,0,1,24.14247,0Z" transform="translate(-38.54903 -269.84702)"/><path class="cls-4" d="M349.9067,726a14.60018,14.60018,0,1,1,29.20036,0Z" transform="translate(-38.54903 -269.84702)"/><path class="cls-14" d="M386.80665,726a22.83333,22.83333,0,0,1,45.66666,0Z" transform="translate(-38.54903 -269.84702)"/><path class="cls-14" d="M581.06508,725.339a15.7323,15.7323,0,0,1,31.4646,0Z" transform="translate(-38.54903 -269.84702)"/><path class="cls-14" d="M540.12,725.339a20.67791,20.67791,0,1,1,41.35582,0Z" transform="translate(-38.54903 -269.84702)"/><path class="cls-4" d="M386.80665,726a22.83333,22.83333,0,0,1,45.66666,0Z" transform="translate(-38.54903 -269.84702)"/><line class="cls-4" x1="489.11763" y1="456.15298" x2="834.85767" y2="456.15298"/><line class="cls-4" x1="446.85767" y1="456.15298" x2="471.85767" y2="456.15298"/><line class="cls-4" x1="71.85767" y1="456.15298" x2="431.85766" y2="456.15298"/><rect class="cls-15" x="295.46643" y="406.67404" width="20" height="49.47895"/><rect class="cls-15" x="295.46643" y="406.67404" width="20" height="49.47895"/><rect class="cls-16" x="295.46643" y="406.67404" width="20" height="15.22068"/><rect class="cls-15" x="502.2489" y="406.67404" width="20" height="49.47895"/><rect class="cls-16" x="502.2489" y="406.67404" width="20" height="15.22068"/><rect class="cls-4" x="295.46643" y="406.67404" width="20" height="49.47895"/><rect class="cls-4" x="502.2489" y="406.67404" width="20" height="49.47895"/><rect class="cls-15" x="308.35767" y="278.02308" width="14" height="106.07946"/><rect class="cls-16" x="308.35767" y="299.31754" width="14" height="67.83545"/><rect class="cls-4" x="308.35767" y="278.02308" width="14" height="106.07946"/><rect class="cls-15" x="495.35767" y="278.02308" width="14" height="106.07946"/><rect class="cls-16" x="495.35767" y="294.15013" width="14" height="73.00285"/><rect class="cls-4" x="495.35767" y="278.02308" width="14" height="106.07946"/><rect class="cls-15" x="262.67615" y="294.23209" width="280" height="30"/><rect class="cls-17" x="262.67615" y="294.23209" width="280" height="10.17089"/><rect class="cls-4" x="262.67615" y="294.23209" width="280" height="30"/><rect class="cls-15" x="262.67615" y="324.23209" width="280" height="30"/><rect class="cls-17" x="262.67615" y="324.23209" width="280" height="9.67089"/><rect class="cls-4" x="262.67615" y="324.23209" width="280" height="30"/><rect class="cls-15" x="240.67615" y="386.67404" width="336.36304" height="20"/><rect class="cls-15" x="240.67615" y="386.67404" width="336.36304" height="20"/><rect class="cls-17" x="240.67615" y="386.67404" width="336.36304" height="7.97895"/><rect class="cls-4" x="240.67615" y="386.67404" width="336.36304" height="20"/><circle class="cls-16" cx="316.61763" cy="310.33414" r="5.25997"/><circle class="cls-16" cx="316.61763" cy="338.13004" r="5.25997"/><circle class="cls-16" cx="503.61763" cy="310.33414" r="5.25997"/><circle class="cls-16" cx="503.61763" cy="338.13004" r="5.25997"/><circle class="cls-14" cx="315.35767" cy="310.33414" r="4"/><circle class="cls-14" cx="315.35767" cy="338.13004" r="4"/><circle class="cls-14" cx="502.35767" cy="310.33414" r="4"/><circle class="cls-14" cx="502.35767" cy="338.13004" r="4"/><line class="cls-4" x1="558.24835" y1="485.23068" x2="564.35619" y2="485.23068"/><line class="cls-4" x1="405.16205" y1="485.23068" x2="538.55328" y2="485.23068"/><line class="cls-4" x1="358.85767" y1="485.23068" x2="381.7843" y2="485.23068"/><line class="cls-4" x1="575.35767" y1="62.25123" x2="586.83157" y2="62.25123"/><line class="cls-4" x1="607.85969" y1="62.25123" x2="644.35767" y2="62.25123"/><line class="cls-4" x1="5" y1="138.37995" x2="39.50001" y2="138.37995"/><line class="cls-4" x1="55.75102" y1="138.37995" x2="74" y2="138.37995"/><line class="cls-4" x1="900.70097" y1="129.28656" x2="907.40154" y2="129.28656"/><line class="cls-4" x1="865.02227" y1="129.28656" x2="884.7843" y2="129.28656"/><line class="cls-4" x1="614.08348" y1="98.81965" x2="674.63185" y2="98.81965"/><path class="cls-4" d="M401.02072,385.58758a16.15617,16.15617,0,1,1,15.94527,13.546" transform="translate(-38.54903 -269.84702)"/><line class="cls-4" x1="309.25237" y1="129.28656" x2="378.41696" y2="129.28656"/><path class="cls-4" d="M871.47119,354.60884a16.15618,16.15618,0,1,1,15.94527,13.546" transform="translate(-38.54903 -269.84702)"/><line class="cls-4" x1="789.88183" y1="98.30782" x2="848.86743" y2="98.30782"/><path class="cls-4" d="M443.27159,442.1309a16.15617,16.15617,0,1,0,15.94527-13.546" transform="translate(-38.54903 -269.84702)"/><line class="cls-4" x1="359.09082" y1="158.73789" x2="420.66783" y2="158.73789"/><line class="cls-4" x1="336.84194" y1="158.73789" x2="344.1377" y2="158.73789"/><line class="cls-4" x1="283.10638" y1="158.73789" x2="318.88975" y2="158.73789"/><line class="cls-4" x1="323.74922" y1="109.25965" x2="259.69257" y2="109.25965"/><line class="cls-4" x1="55.75102" y1="90.25123" x2="80" y2="90.25123"/><circle class="cls-18" cx="848.11559" cy="209.64609" r="23.81665"/><circle class="cls-4" cx="848.11559" cy="209.64609" r="23.81665"/><ellipse class="cls-5" cx="124.11763" cy="400.06282" rx="34.29682" ry="56.09017"/><path class="cls-6" d="M162.66669,613.81964a21.304,21.304,0,0,0-2.32032.14209c13.37763,7.64954,22.977,28.45966,22.977,52.94806,0,29.70105-14.11822,53.99481-31.97656,55.94812A22.649,22.649,0,0,0,162.66669,726c18.94159,0,34.29681-25.11243,34.29681-56.09021C196.9635,638.93207,181.60828,613.81964,162.66669,613.81964Z" transform="translate(-38.54903 -269.84702)"/><ellipse class="cls-4" cx="124.11763" cy="400.06282" rx="34.29682" ry="56.09017"/><path class="cls-2" d="M166.25118,726a34.25827,34.25827,0,0,1,68.51653,0Z" transform="translate(-38.54903 -269.84702)"/><path class="cls-3" d="M200.50946,691.7417a34.45374,34.45374,0,0,0-8.593,1.08246A34.20525,34.20525,0,0,1,217.58167,726h17.186A34.20739,34.20739,0,0,0,200.50946,691.7417Z" transform="translate(-38.54903 -269.84702)"/><path class="cls-4" d="M166.25118,726a34.25827,34.25827,0,0,1,68.51653,0Z" transform="translate(-38.54903 -269.84702)"/><circle class="cls-19" cx="752.64131" cy="112.17132" r="7.94498"/><circle class="cls-19" cx="736.16563" cy="148.55892" r="10.17897"/><circle class="cls-19" cx="789.88183" cy="230.15298" r="10.17897"/><circle class="cls-3" cx="794.62333" cy="174.89273" r="10.17897"/><circle class="cls-11" cx="121.1311" cy="386.67404" r="8.33333"/><circle class="cls-20" cx="109.06398" cy="400.90299" r="4.91168"/><circle class="cls-11" cx="129.46443" cy="414.28438" r="5.83333"/></g></g></svg>