<svg xmlns="http://www.w3.org/2000/svg" viewBox="0 0 269 307.83184"><defs><style>.cls-1{isolation:isolate;}.cls-2{fill:#0a7362;stroke:#0a7362;}.cls-2,.cls-23,.cls-5{stroke-linecap:round;stroke-linejoin:round;}.cls-2,.cls-23,.cls-5,.cls-9{stroke-width:8px;}.cls-3{fill:#4c5b60;}.cls-10,.cls-4,.cls-6{fill:#526770;}.cls-4,.cls-9{mix-blend-mode:overlay;}.cls-23,.cls-5,.cls-9{fill:none;}.cls-23,.cls-5{stroke:#102d3b;}.cls-6{opacity:0.37;}.cls-10,.cls-17,.cls-6{mix-blend-mode:screen;}.cls-7{fill:#ff9852;}.cls-11,.cls-8{fill:#d85639;}.cls-9{stroke:#526770;stroke-miterlimit:10;}.cls-10{opacity:0.51;}.cls-11{opacity:0.61;}.cls-12{fill:#b7c8ce;}.cls-13,.cls-14{fill:#ea3939;}.cls-14{opacity:0.62;}.cls-14,.cls-18{mix-blend-mode:multiply;}.cls-15{fill:#102d3b;}.cls-16,.cls-17,.cls-18{fill:#526066;}.cls-17{opacity:0.64;}.cls-18{opacity:0.3;}.cls-19{fill:#42708a;}.cls-20,.cls-21{fill:#ccdde5;}.cls-20{opacity:0.73;}.cls-22{fill:#fff;}.cls-23{opacity:0.38;}</style></defs><g class="cls-1"><g id="Layer_1" data-name="Layer 1"><path class="cls-2" d="M75.06436,18.83863H247a18,18,0,0,1,18,18V256.063a18.25806,18.25806,0,0,1-18.25806,18.25806H75.06436a0,0,0,0,1,0,0V18.83863A0,0,0,0,1,75.06436,18.83863Z"/><rect class="cls-2" x="215.90099" y="13.67737" width="15.50495" height="265.80498" rx="5"/><polygon class="cls-2" points="114.473 303.832 95.092 293.031 95.092 274.321 114.473 274.321 114.473 303.832"/><path class="cls-3" d="M68.604,9.16126H240.5396a18,18,0,0,1,18,18V246.38565a18.25806,18.25806,0,0,1-18.25806,18.25806H68.604a0,0,0,0,1,0,0V9.16126A0,0,0,0,1,68.604,9.16126Z"/><rect class="cls-4" x="216.54703" y="9.16126" width="15.50495" height="255.48245"/><rect class="cls-5" x="68.60396" y="9.16126" width="21.96535" height="255.48245"/><rect class="cls-6" x="68.60396" y="9.16126" width="10.98267" height="255.48245"/><rect class="cls-7" x="68.60396" y="82.70924" width="189.93564" height="72.25766"/><path class="cls-8" d="M496.38783,430.09124a6.311,6.311,0,0,1-.7432,3.27524,7.01484,7.01484,0,0,1-1.75011,2.00163,6.33882,6.33882,0,0,1-3.99927,1.12052h-7.17331V423.2147h5.52415a15.10406,15.10406,0,0,1,2.13369.12916,9.43673,9.43673,0,0,1,1.59681.36416,6.3422,6.3422,0,0,1,1.20817.52671,6.22755,6.22755,0,0,1,.89209.6272,6.105,6.105,0,0,1,1.19366,1.312,6.43965,6.43965,0,0,1,.81575,1.75276A7.432,7.432,0,0,1,496.38783,430.09124Zm-4.07561-.17263a4.42917,4.42917,0,0,0-.61891-2.52362,3.02689,3.02689,0,0,0-1.48639-1.21124,5.27419,5.27419,0,0,0-1.769-.30652h-1.70721v7.86286h1.70721a4.89055,4.89055,0,0,0,2.72359-.74722Q492.31222,432.24581,492.31222,429.91861Z" transform="translate(-343 -325.16816)"/><path class="cls-8" d="M513.08454,429.84206a6.98679,6.98679,0,0,1-.858,3.41921,6.20384,6.20384,0,0,1-2.5564,2.48045,8.57616,8.57616,0,0,1-4.133.91923,8.41319,8.41319,0,0,1-4.17213-.95766,6.22636,6.22636,0,0,1-2.53621-2.51889,7.17632,7.17632,0,0,1-.00505-6.68941,6.17516,6.17516,0,0,1,2.53684-2.50944,8.4766,8.4766,0,0,1,4.17655-.95293,9.23785,9.23785,0,0,1,3.28445.54593,6.57684,6.57684,0,0,1,2.37344,1.47964,6.23133,6.23133,0,0,1,1.41006,2.17425A7.16951,7.16951,0,0,1,513.08454,429.84206Zm-4.08569,0a4.03438,4.03438,0,0,0-.22019-1.36466,2.90464,2.90464,0,0,0-.66686-1.07264,3.0878,3.0878,0,0,0-1.08829-.70879,4.02958,4.02958,0,0,0-1.4864-.25391,3.40892,3.40892,0,1,0,0,6.80944,3.78813,3.78813,0,0,0,1.87944-.43567,2.90058,2.90058,0,0,0,1.17978-1.20684A3.75611,3.75611,0,0,0,508.99885,429.84206Z" transform="translate(-343 -325.16816)"/><path class="cls-8" d="M527.20152,426.44206h-4.8718v10.04657h-3.99926V426.44206h-4.87179V423.2147h13.74285Z" transform="translate(-343 -325.16816)"/><path class="cls-8" d="M495.25663,451.36159q-.43153.16256-.73879.26809-.30661.10536-.58989.19153-.28294.086-.81953.22019a17.34166,17.34166,0,0,1-1.81762.321,15.94262,15.94262,0,0,1-1.91351.10994,9.37308,9.37308,0,0,1-3.74-.73746,6.13672,6.13672,0,0,1-2.74756-2.28892,6.73678,6.73678,0,0,1-1.03089-3.81173,7.99449,7.99449,0,0,1,.53248-2.85879,5.00332,5.00332,0,0,1,1.6252-2.24576,7.57555,7.57555,0,0,1,1.82708-1.06792,7.84908,7.84908,0,0,1,1.80752-.493,13.9722,13.9722,0,0,1,1.947-.12475,13.21547,13.21547,0,0,1,2.89645.26336q1.1413.26367,2.50278.6943V442.943a11.03858,11.03858,0,0,0-1.90847-.8811,7.658,7.658,0,0,0-2.51224-.3544,5.15527,5.15527,0,0,0-2.77658.65618,3.63437,3.63437,0,0,0-1.44791,1.566,4.29649,4.29649,0,0,0-.40819,1.76221,3.76078,3.76078,0,0,0,.47,1.85294,3.44061,3.44061,0,0,0,1.41952,1.36025,4.76625,4.76625,0,0,0,2.29205.51222,7.20442,7.20442,0,0,0,1.63024-.201v-1.56123h-1.8031v-2.672h5.304Z" transform="translate(-343 -325.16816)"/><path class="cls-8" d="M511.28207,452.3h-4.30651l-1.04477-2.356a9.84235,9.84235,0,0,0-1.03593-1.89137,2.23312,2.23312,0,0,0-.89651-.76612,3.19076,3.19076,0,0,0-1.12742-.16759h-.45046V452.3h-4.00872V439.0261h6.81874a4.96666,4.96666,0,0,1,2.70466.67036,4.03314,4.03314,0,0,1,1.51984,1.628,4.17756,4.17756,0,0,1,.465,1.81986,3.43248,3.43248,0,0,1-.38864,1.69984,3.1114,3.1114,0,0,1-.81954,1.01058,8.177,8.177,0,0,1-.96842.60326,3.83457,3.83457,0,0,1,1.05928.88583,11.15818,11.15818,0,0,1,1.13688,2.07345Zm-5.44718-9.07914a1.375,1.375,0,0,0-.6044-1.28339,3.98251,3.98251,0,0,0-1.96588-.36384h-.84414v3.19869h.86307a4.33631,4.33631,0,0,0,2.00941-.32068A1.31034,1.31034,0,0,0,505.83489,443.22089Z" transform="translate(-343 -325.16816)"/><path class="cls-8" d="M517.13175,452.3H513.123V439.0261h4.00872Z" transform="translate(-343 -325.16816)"/><path class="cls-8" d="M534.154,445.90264a6.3111,6.3111,0,0,1-.74319,3.27525,7.01467,7.01467,0,0,1-1.75012,2.00162A6.33877,6.33877,0,0,1,527.66144,452.3h-7.17331V439.0261h5.52414a15.10411,15.10411,0,0,1,2.1337.12916,9.43853,9.43853,0,0,1,1.5968.36416,6.34227,6.34227,0,0,1,1.20817.52671,6.22722,6.22722,0,0,1,.89209.6272,6.10449,6.10449,0,0,1,1.19366,1.31206,6.43878,6.43878,0,0,1,.81575,1.75276A7.43163,7.43163,0,0,1,534.154,445.90264Zm-4.0756-.17263a4.42911,4.42911,0,0,0-.61891-2.52361,3.02692,3.02692,0,0,0-1.48639-1.21125,5.27443,5.27443,0,0,0-1.769-.30651h-1.70721v7.86286h1.70721a4.89042,4.89042,0,0,0,2.72358-.74723Q530.07842,448.05721,530.07841,445.73Z" transform="translate(-343 -325.16816)"/><path class="cls-8" d="M494.863,464.34728a3.45168,3.45168,0,0,1-1.17474,2.73909,4.83424,4.83424,0,0,1-3.28445,1.02475h-7.68182V454.83719h6.4257a8.748,8.748,0,0,1,2.17218.23942,4.33728,4.33728,0,0,1,1.49081.65618,2.69631,2.69631,0,0,1,.84415.9816,2.75847,2.75847,0,0,1,.27822,1.2355,3.14688,3.14688,0,0,1-.28769,1.34544,3.23009,3.23009,0,0,1-.71481,1.01531,2.65016,2.65016,0,0,1-.858.5601,5.24888,5.24888,0,0,1,2.07629,1.35521A3.1096,3.1096,0,0,1,494.863,464.34728Zm-4.68-5.68891a1.28259,1.28259,0,0,0-.63279-1.27362,4.64919,4.64919,0,0,0-1.97534-.316h-.84414v3.17948h.86307a4.56735,4.56735,0,0,0,1.98039-.316A1.29763,1.29763,0,0,0,490.18294,458.65837Zm.65235,5.526q0-1.7044-2.47438-1.70457h-1.63024v3.39968h1.63024Q490.83561,465.87953,490.83529,464.18442Z" transform="translate(-343 -325.16816)"/><path class="cls-8" d="M511.65556,461.46455a6.9869,6.9869,0,0,1-.858,3.41921,6.20384,6.20384,0,0,1-2.5564,2.48045,8.576,8.576,0,0,1-4.133.91923,8.41319,8.41319,0,0,1-4.17213-.95766,6.22622,6.22622,0,0,1-2.53621-2.51888,7.17634,7.17634,0,0,1-.005-6.68942,6.1751,6.1751,0,0,1,2.53684-2.50944,8.47668,8.47668,0,0,1,4.17655-.95293,9.23793,9.23793,0,0,1,3.28445.54593,6.577,6.577,0,0,1,2.37344,1.47964,6.23151,6.23151,0,0,1,1.41006,2.17426A7.16967,7.16967,0,0,1,511.65556,461.46455Zm-4.0857,0a4.03442,4.03442,0,0,0-.22018-1.36466,2.90485,2.90485,0,0,0-.66686-1.07264,3.08789,3.08789,0,0,0-1.0883-.70879,4.02973,4.02973,0,0,0-1.48639-.2539,3.40891,3.40891,0,1,0,0,6.80943,3.78818,3.78818,0,0,0,1.87944-.43567,2.9005,2.9005,0,0,0,1.17978-1.20683A3.7563,3.7563,0,0,0,507.56986,461.46455Z" transform="translate(-343 -325.16816)"/><path class="cls-8" d="M528.37183,461.46455a6.98679,6.98679,0,0,1-.858,3.41921,6.20378,6.20378,0,0,1-2.5564,2.48045,8.576,8.576,0,0,1-4.133.91923,8.41319,8.41319,0,0,1-4.17213-.95766,6.22628,6.22628,0,0,1-2.53621-2.51888,7.17634,7.17634,0,0,1-.005-6.68942,6.17516,6.17516,0,0,1,2.53684-2.50944,8.47671,8.47671,0,0,1,4.17655-.95293,9.238,9.238,0,0,1,3.28446.54593,6.577,6.577,0,0,1,2.37343,1.47964,6.23123,6.23123,0,0,1,1.41006,2.17426A7.16946,7.16946,0,0,1,528.37183,461.46455Zm-4.08569,0a4.03442,4.03442,0,0,0-.22019-1.36466,2.90472,2.90472,0,0,0-.66686-1.07264,3.08785,3.08785,0,0,0-1.08829-.70879,4.02979,4.02979,0,0,0-1.4864-.2539,3.40891,3.40891,0,1,0,0,6.80943,3.7882,3.7882,0,0,0,1.87945-.43567,2.90053,2.90053,0,0,0,1.17977-1.20683A3.75618,3.75618,0,0,0,524.28614,461.46455Z" transform="translate(-343 -325.16816)"/><path class="cls-8" d="M544.84774,468.11112h-4.89136l-5.08251-6.21562v6.21562h-4.00873V454.83719h4.00873V460.775l4.81438-5.93778h4.35383l-4.94877,6.21563Z" transform="translate(-343 -325.16816)"/><line class="cls-9" x1="90.56931" y1="82.70924" x2="90.56931" y2="154.9669"/><rect class="cls-10" x="68.60396" y="82.70924" width="10.98267" height="72.25766"/><rect class="cls-11" x="221.06931" y="82.70924" width="10.98267" height="72.25766"/><rect class="cls-5" x="68.60396" y="82.70924" width="189.93564" height="72.25766"/><path class="cls-5" d="M68.604,9.16126H240.5396a18,18,0,0,1,18,18V246.38565a18.25806,18.25806,0,0,1-18.25806,18.25806H68.604a0,0,0,0,1,0,0V9.16126A0,0,0,0,1,68.604,9.16126Z"/><rect class="cls-12" x="209.44059" y="4" width="15.50495" height="265.80498" rx="5.76237"/><rect class="cls-5" x="209.44059" y="4" width="15.50495" height="265.80498" rx="5.76237"/><polygon class="cls-13" points="108.012 294.154 88.631 283.353 88.631 264.644 108.012 264.644 108.012 294.154"/><rect class="cls-14" x="88.63119" y="264.64371" width="19.38119" height="7.31179"/><polygon class="cls-5" points="108.012 294.154 88.631 283.353 88.631 264.644 108.012 264.644 108.012 294.154"/><rect class="cls-2" x="9.81436" y="63.35451" width="20.67327" height="97.41881"/><path class="cls-2" d="M373.75012,551.74757H352.76618a234.15357,234.15357,0,0,1,0-43.87073h20.98394A234.15357,234.15357,0,0,1,373.75012,551.74757Z" transform="translate(-343 -325.16816)"/><path class="cls-2" d="M373.75012,507.87684H352.7662c4.31021-6.45157,4.31021-14.83862,0-21.93536h20.98392C369.43991,493.03822,369.43991,501.42527,373.75012,507.87684Z" transform="translate(-343 -325.16816)"/><path class="cls-2" d="M365.93388,582.07c3.50144-10.32252,7.703-19.99989,7.81624-30.32241H352.7662c.1132,10.32252,4.31476,19.99989,7.81623,30.32241Z" transform="translate(-343 -325.16816)"/><rect class="cls-2" x="17.56683" y="256.90182" width="5.16832" height="3.87095"/><line class="cls-2" x1="20.15099" y1="261.41793" x2="20.15099" y2="269.80498"/><rect class="cls-2" x="12.39851" y="49.16104" width="15.50495" height="14.19347"/><path class="cls-2" d="M18.65788,28.516H21.643a4.32231,4.32231,0,0,1,4.32231,4.32231V49.161a0,0,0,0,1,0,0H14.33663a0,0,0,0,1,0,0V32.83724A4.32124,4.32124,0,0,1,18.65788,28.516Z"/><rect class="cls-2" x="17.56683" y="72.38672" width="20.02723" height="11.61284"/><polygon class="cls-2" points="37.594 123.569 30.488 114.214 30.488 84 37.594 84 37.594 123.569"/><path class="cls-15" d="M369.22784,504.65105H348.24392c4.31021-6.45157,4.31021-14.83862,0-21.93536h20.98392C364.91763,489.81243,364.91763,498.19948,369.22784,504.65105Z" transform="translate(-343 -325.16816)"/><rect class="cls-16" x="5.29208" y="60.12872" width="20.67327" height="97.41881"/><rect class="cls-16" x="5.29208" y="60.12872" width="20.67327" height="97.41881"/><rect class="cls-17" x="5.29208" y="60.12872" width="6.4604" height="97.41881"/><rect class="cls-18" x="20.15099" y="60.12872" width="5.81436" height="97.41881"/><rect class="cls-5" x="5.29208" y="60.12872" width="20.67327" height="97.41881"/><path class="cls-19" d="M369.22784,548.52178H348.24391a234.15187,234.15187,0,0,1,0-43.87073h20.98393A234.15357,234.15357,0,0,1,369.22784,548.52178Z" transform="translate(-343 -325.16816)"/><path class="cls-16" d="M369.22784,548.52178H348.24391a234.15187,234.15187,0,0,1,0-43.87073h20.98393A234.15357,234.15357,0,0,1,369.22784,548.52178Z" transform="translate(-343 -325.16816)"/><path class="cls-18" d="M369.22784,504.65105H364.1667a234.15867,234.15867,0,0,1,0,43.87073h5.06114A234.15187,234.15187,0,0,0,369.22784,504.65105Z" transform="translate(-343 -325.16816)"/><path class="cls-20" d="M355.66788,547.87662h-3.01439a233.97007,233.97007,0,0,1-.05225-43.22557h3.12094A234.38181,234.38181,0,0,0,355.66788,547.87662Z" transform="translate(-343 -325.16816)"/><path class="cls-5" d="M369.22784,548.52178H348.24391a234.15187,234.15187,0,0,1,0-43.87073h20.98393A234.15357,234.15357,0,0,1,369.22784,548.52178Z" transform="translate(-343 -325.16816)"/><rect class="cls-5" x="4" y="194.96668" width="23.25743" height="13.54831"/><path class="cls-5" d="M369.22784,504.65105H348.24392c4.31021-6.45157,4.31021-14.83862,0-21.93536h20.98392C364.91763,489.81243,364.91763,498.19948,369.22784,504.65105Z" transform="translate(-343 -325.16816)"/><path class="cls-21" d="M361.41161,578.84419c3.50144-10.32252,7.703-19.99989,7.81623-30.32241H348.24392c.1132,10.32252,4.31476,19.99989,7.81623,30.32241Z" transform="translate(-343 -325.16816)"/><path class="cls-22" d="M369.22784,548.52178c-.00237.21586-.01684.42984-.02275.64516H355.35037c.07287,10.13808,1.84151,19.78792,4.02473,29.67725h-3.31493c-3.50145-10.32252-7.703-19.99989-7.81624-30.32241Z" transform="translate(-343 -325.16816)"/><path class="cls-5" d="M361.41161,578.84419c3.50144-10.32252,7.703-19.99989,7.81623-30.32241H348.24392c.1132,10.32252,4.31476,19.99989,7.81623,30.32241Z" transform="translate(-343 -325.16816)"/><rect class="cls-5" x="13.04455" y="253.67603" width="5.16832" height="3.87095"/><line class="cls-5" x1="15.62871" y1="258.19214" x2="15.62871" y2="266.57919"/><rect class="cls-5" x="7.87624" y="45.93525" width="15.50495" height="14.19347"/><rect class="cls-15" x="7.87624" y="45.93525" width="15.50495" height="14.19347"/><path class="cls-21" d="M14.1356,25.2902h2.98516a4.32231,4.32231,0,0,1,4.32231,4.32231V45.93525a0,0,0,0,1,0,0H9.81436a0,0,0,0,1,0,0V29.61145A4.32124,4.32124,0,0,1,14.1356,25.2902Z"/><path class="cls-5" d="M14.1356,25.2902h2.98516a4.32231,4.32231,0,0,1,4.32231,4.32231V45.93525a0,0,0,0,1,0,0H9.81436a0,0,0,0,1,0,0V29.61145A4.32124,4.32124,0,0,1,14.1356,25.2902Z"/><rect class="cls-21" x="13.04455" y="69.16093" width="20.02723" height="11.61284"/><rect class="cls-5" x="13.04455" y="69.16093" width="20.02723" height="11.61284"/><polygon class="cls-21" points="33.072 120.343 25.965 110.989 25.965 80.774 33.072 80.774 33.072 120.343"/><polygon class="cls-5" points="33.072 120.343 25.965 110.989 25.965 80.774 33.072 80.774 33.072 120.343"/><path class="cls-23" d="M433.56931,407.8774" transform="translate(-343 -325.16816)"/></g></g></svg>