<svg xmlns="http://www.w3.org/2000/svg" viewBox="0 0 811.49138 408.25253"><defs><style>.cls-1{isolation:isolate;}.cls-17,.cls-2,.cls-26{opacity:0.3;}.cls-10,.cls-13,.cls-17,.cls-2,.cls-5{mix-blend-mode:multiply;}.cls-17,.cls-26,.cls-3{fill:#2d2d2d;stroke:#2d2d2d;}.cls-17,.cls-19,.cls-20,.cls-21,.cls-22,.cls-26,.cls-3,.cls-32,.cls-7{stroke-linecap:round;}.cls-17,.cls-19,.cls-20,.cls-22,.cls-26,.cls-3,.cls-32,.cls-7{stroke-linejoin:round;}.cls-17,.cls-19,.cls-26,.cls-3,.cls-32,.cls-7{stroke-width:8px;}.cls-4,.cls-5,.cls-6{fill:#00b3c6;}.cls-13,.cls-5{opacity:0.5;}.cls-6{opacity:0.35;}.cls-14,.cls-6,.cls-9{mix-blend-mode:screen;}.cls-20,.cls-21,.cls-22,.cls-7{fill:none;}.cls-20,.cls-22,.cls-32,.cls-7{stroke:#330e00;}.cls-10,.cls-8,.cls-9{fill:#565656;}.cls-10,.cls-9{opacity:0.27;}.cls-11{fill:#ff1f1f;}.cls-12,.cls-13,.cls-14{fill:#fdd2a7;}.cls-15{fill:#3babff;}.cls-16{fill:#330e00;}.cls-18{fill:#fff;}.cls-19{fill:silver;stroke:silver;}.cls-20{stroke-width:4px;}.cls-21{stroke:#fff;stroke-miterlimit:10;stroke-width:5px;}.cls-22{stroke-width:6px;}.cls-23{fill:#8c6239;}.cls-24{fill:#42210b;}.cls-25{fill:#603813;}.cls-26{mix-blend-mode:overlay;}.cls-27{fill:#bd3f3a;}.cls-28{fill:#a33500;}.cls-29{fill:#6d2300;}.cls-30{fill:#f99;}.cls-31{fill:red;}.cls-32{fill:#f33;}.cls-33{fill:#bf0000;}</style></defs><g class="cls-1"><g id="Layer_1" data-name="Layer 1"><g class="cls-2"><rect class="cls-3" x="326.40977" y="84.32493" width="42" height="246.5"/><rect class="cls-3" x="320.74311" y="330.66394" width="53.33333" height="30"/><path class="cls-3" d="M326.40977,360.66394h42a0,0,0,0,1,0,0V377.8322A8.67075,8.67075,0,0,1,359.739,386.503h-24.6585a8.67075,8.67075,0,0,1-8.67075-8.67075V360.66394A0,0,0,0,1,326.40977,360.66394Z"/><polygon class="cls-3" points="368.41 84.325 326.41 84.325 347.41 17.836 368.41 84.325"/></g><g class="cls-2"><rect class="cls-3" x="460.96119" y="178.0021" width="37.33333" height="212"/><rect class="cls-3" x="455.62786" y="35.0021" width="48" height="143"/><path class="cls-3" d="M479.62784,14h0a18.66665,18.66665,0,0,1,18.66665,18.66665V35.0021a0,0,0,0,1,0,0H460.96119a0,0,0,0,1,0,0V32.66665A18.66665,18.66665,0,0,1,479.62784,14Z"/><line class="cls-3" x1="441.78057" y1="57.37436" x2="441.78057" y2="146.6991"/><line class="cls-3" x1="455.62516" y1="71.83543" x2="441.78057" y2="71.83543"/><path class="cls-3" d="M597.81,694.49915a14.25043,14.25043,0,0,1-28.50086,0Z" transform="translate(-103.93173 -304.49705)"/></g><rect class="cls-4" x="451.96119" y="168.0021" width="37.33333" height="212"/><rect class="cls-5" x="475.73494" y="168.0021" width="13.55959" height="212"/><rect class="cls-6" x="451.96119" y="168.0021" width="13.41624" height="212"/><rect class="cls-7" x="451.96119" y="168.0021" width="37.33333" height="212"/><rect class="cls-8" x="446.62786" y="25.0021" width="48" height="143"/><rect class="cls-9" x="446.62786" y="25.0021" width="14.33333" height="143"/><rect class="cls-10" x="479.62786" y="25.0021" width="14.33333" height="143"/><rect class="cls-7" x="446.62786" y="25.0021" width="48" height="143"/><path class="cls-4" d="M470.62784,4h0a18.66665,18.66665,0,0,1,18.66665,18.66665V25.0021a0,0,0,0,1,0,0H451.96119a0,0,0,0,1,0,0V22.66665A18.66665,18.66665,0,0,1,470.62784,4Z"/><path class="cls-7" d="M470.62784,4h0a18.66665,18.66665,0,0,1,18.66665,18.66665V25.0021a0,0,0,0,1,0,0H451.96119a0,0,0,0,1,0,0V22.66665A18.66665,18.66665,0,0,1,470.62784,4Z"/><line class="cls-7" x1="432.78057" y1="47.37436" x2="432.78057" y2="136.6991"/><line class="cls-7" x1="446.62516" y1="61.83543" x2="432.78057" y2="61.83543"/><path class="cls-8" d="M588.81,684.49915a14.25043,14.25043,0,0,1-28.50086,0Z" transform="translate(-103.93173 -304.49705)"/><path class="cls-7" d="M588.81,684.49915a14.25043,14.25043,0,0,1-28.50086,0Z" transform="translate(-103.93173 -304.49705)"/><rect class="cls-11" x="315.40977" y="72.32493" width="42" height="246.5"/><rect class="cls-7" x="315.40977" y="72.32493" width="42" height="246.5"/><rect class="cls-7" x="329.08869" y="72.32493" width="14.64216" height="246.5"/><rect class="cls-12" x="309.74311" y="318.66394" width="53.33333" height="30"/><rect class="cls-13" x="347.40977" y="318.66394" width="15.66667" height="30"/><rect class="cls-14" x="309.74311" y="318.66394" width="14.32516" height="30"/><rect class="cls-7" x="309.74311" y="318.66394" width="53.33333" height="30"/><path class="cls-15" d="M315.40977,348.66394h42a0,0,0,0,1,0,0V365.8322A8.67075,8.67075,0,0,1,348.739,374.503h-24.6585a8.67075,8.67075,0,0,1-8.67075-8.67075V348.66394A0,0,0,0,1,315.40977,348.66394Z"/><path class="cls-7" d="M315.40977,348.66394h42a0,0,0,0,1,0,0V365.8322A8.67075,8.67075,0,0,1,348.739,374.503h-24.6585a8.67075,8.67075,0,0,1-8.67075-8.67075V348.66394A0,0,0,0,1,315.40977,348.66394Z"/><polygon class="cls-12" points="357.41 72.325 315.41 72.325 336.41 5.836 357.41 72.325"/><polygon class="cls-7" points="357.41 72.325 315.41 72.325 336.41 5.836 357.41 72.325"/><polygon class="cls-16" points="336.41 5.836 327.514 34.002 345.306 34.002 336.41 5.836"/><path class="cls-17" d="M189.65162,520.9913c-14.76453-20.85951-38.30222-29.58114-52.57288-19.48025s-13.87026,35.19928.89427,56.05879c12.89661,18.2205,32.486,27.17766,46.74718,22.42128l61.50671,98.116c5.24187,8.21319,13.39126,9.46964,19.49348,5.15044s7.62652-12.42277,1.62316-20.097L195.2564,572.53351C204.48338,560.66479,202.54824,539.2118,189.65162,520.9913Z" transform="translate(-103.93173 -304.49705)"/><circle class="cls-17" cx="142" cy="193.81815" r="126"/><circle class="cls-18" cx="130" cy="181.81815" r="126"/><path class="cls-19" d="M182.25641,550.53351c9.227-11.86872,7.29181-33.32172-5.6048-51.54224-14.76453-20.8595-66.44311,15.71906-51.67859,36.57855,12.89661,18.22052,32.486,27.17768,46.74719,22.42127l29.82215,47.57251a125.754,125.754,0,0,0,28.14276,4.59668Z" transform="translate(-103.93173 -304.49705)"/><path class="cls-19" d="M212.28414,178.81815H244.2686a8.01553,8.01553,0,0,1,8.01553,8.01553v15.96893a8.01553,8.01553,0,0,1-8.01553,8.01553H212.28414a0,0,0,0,1,0,0v-32A0,0,0,0,1,212.28414,178.81815Z"/><circle class="cls-19" cx="133" cy="194.81815" r="79"/><circle class="cls-7" cx="130" cy="181.81815" r="126"/><path class="cls-18" d="M173.65162,508.9913c-14.76453-20.85951-38.30222-29.58114-52.57288-19.48025s-13.87026,35.19928.89427,56.05879c12.89661,18.2205,32.486,27.17766,46.74718,22.42128l61.50671,98.116c5.24187,8.21319,13.39126,9.46964,19.49348,5.15044s7.62652-12.42277,1.62316-20.097L179.2564,560.53351C188.48338,548.66479,186.54824,527.2118,173.65162,508.9913Z" transform="translate(-103.93173 -304.49705)"/><path class="cls-19" d="M180.38609,556.67309c2.93407-12.964-3.05463-28.596-12.22827-43.79331-5.35726-8.875-10.09229-16.0359-17.2873-21.09362C150.87319,517.67989,162.77581,540.262,180.38609,556.67309Z" transform="translate(-103.93173 -304.49705)"/><path class="cls-20" d="M136.06954,545.59871a55.44687,55.44687,0,0,1-4.48223-5.53995c-6.56-9.26805-9.79516-19.886-9.43923-28.42379" transform="translate(-103.93173 -304.49705)"/><path class="cls-7" d="M173.65162,508.9913c-14.76453-20.85951-38.30222-29.58114-52.57288-19.48025s-13.87026,35.19928.89427,56.05879c12.89661,18.2205,32.486,27.17766,46.74718,22.42128l61.50671,98.116c5.24187,8.21319,13.39126,9.46964,19.49348,5.15044s7.62652-12.42277,1.62316-20.097L179.2564,560.53351C188.48338,548.66479,186.54824,527.2118,173.65162,508.9913Z" transform="translate(-103.93173 -304.49705)"/><path class="cls-18" d="M202.6985,165.81815h38.5701a8.01553,8.01553,0,0,1,8.01553,8.01553v15.96893a8.01553,8.01553,0,0,1-8.01553,8.01553H202.6985a0,0,0,0,1,0,0v-32A0,0,0,0,1,202.6985,165.81815Z"/><path class="cls-7" d="M202.6985,165.81815h38.5701a8.01553,8.01553,0,0,1,8.01553,8.01553v15.96893a8.01553,8.01553,0,0,1-8.01553,8.01553H202.6985a0,0,0,0,1,0,0v-32A0,0,0,0,1,202.6985,165.81815Z"/><circle class="cls-18" cx="130" cy="181.81815" r="79"/><circle class="cls-7" cx="130" cy="181.81815" r="79"/><circle class="cls-16" cx="130" cy="181.81815" r="63.3152"/><path class="cls-21" d="M240.34154,436.363a51.34314,51.34314,0,1,1-51.838,74.59153" transform="translate(-103.93173 -304.49705)"/><path class="cls-21" d="M236.62882,449.98587a43.36526,43.36526,0,0,1,32.5256,29.366" transform="translate(-103.93173 -304.49705)"/><line class="cls-22" x1="465.73494" y1="281.0021" x2="465.73494" y2="361.83629"/><rect class="cls-7" x="451.96119" y="168.0021" width="37.33333" height="212"/><rect class="cls-7" x="446.62786" y="25.0021" width="48" height="143"/><path class="cls-7" d="M470.62784,4h0a18.66665,18.66665,0,0,1,18.66665,18.66665V25.0021a0,0,0,0,1,0,0H451.96119a0,0,0,0,1,0,0V22.66665A18.66665,18.66665,0,0,1,470.62784,4Z"/><line class="cls-7" x1="432.78057" y1="47.37436" x2="432.78057" y2="136.6991"/><line class="cls-7" x1="446.62516" y1="61.83543" x2="432.78057" y2="61.83543"/><path class="cls-7" d="M588.81,684.49915a14.25043,14.25043,0,0,1-28.50086,0Z" transform="translate(-103.93173 -304.49705)"/><g class="cls-2"><rect class="cls-3" x="741.21253" y="385.13796" width="96" height="308" rx="18" transform="translate(363.69179 -665.41834) rotate(36)"/><rect class="cls-3" x="563.20337" y="41.12343" width="96" height="308" rx="18"/><rect class="cls-3" x="703.42822" y="358.4981" width="96" height="308" rx="18" transform="translate(66.44094 -491.76543) rotate(16)"/></g><rect class="cls-18" x="736.21253" y="369.13796" width="96" height="308" rx="18" transform="translate(353.33231 -665.53515) rotate(36)"/><rect class="cls-7" x="736.21253" y="369.13796" width="96" height="308" rx="18" transform="translate(353.33231 -665.53515) rotate(36)"/><path class="cls-7" d="M786.54071,379.642h60a18,18,0,0,1,18,18v180a0,0,0,0,1,0,0h-96a0,0,0,0,1,0,0v-180a18,18,0,0,1,18-18Z" transform="translate(333.35239 -693.03515) rotate(36)"/><path class="cls-23" d="M825.33454,392.2469h60a18,18,0,0,1,18,18v48a0,0,0,0,1,0,0h-96a0,0,0,0,1,0,0v-48A18,18,0,0,1,825.33454,392.2469Z" transform="translate(309.37649 -726.03515) rotate(36)"/><path class="cls-7" d="M825.33454,392.2469h60a18,18,0,0,1,18,18v48a0,0,0,0,1,0,0h-96a0,0,0,0,1,0,0v-48A18,18,0,0,1,825.33454,392.2469Z" transform="translate(309.37649 -726.03515) rotate(36)"/><rect class="cls-24" x="729.74689" y="499.03714" width="96" height="66" transform="translate(357.32829 -660.03515) rotate(36)"/><rect class="cls-25" x="768.54071" y="445.64202" width="96" height="66" transform="translate(333.35239 -693.03515) rotate(36)"/><rect class="cls-7" x="768.54071" y="445.64202" width="96" height="66" transform="translate(333.35239 -693.03515) rotate(36)"/><rect class="cls-7" x="729.74689" y="499.03714" width="96" height="66" transform="translate(357.32829 -660.03515) rotate(36)"/><circle class="cls-7" cx="583.32517" cy="310.12343" r="8"/><path class="cls-26" d="M824.71423,360.73291l-57.67572-16.53827a18,18,0,0,0-22.26415,12.34121L669.801,617.99908a18,18,0,0,0,12.34125,22.26416L734.75,637.25c.46515.13336,4.91891.27575,5.3851.37048h4.78331l7.68-.8279A20.12868,20.12868,0,0,0,769.819,622.22609l67.23653-239.229A18,18,0,0,0,824.71423,360.73291Z" transform="translate(-103.93173 -304.49705)"/><rect class="cls-18" x="698.42822" y="342.4981" width="96" height="308" rx="18" transform="translate(61.83706 -491.00705) rotate(16)"/><rect class="cls-7" x="698.42822" y="342.4981" width="96" height="308" rx="18" transform="translate(61.83706 -491.00705) rotate(16)"/><path class="cls-27" d="M749.78034,347.18543h60a18,18,0,0,1,18,18v48a0,0,0,0,1,0,0h-96a0,0,0,0,1,0,0v-48A18,18,0,0,1,749.78034,347.18543Z" transform="matrix(0.96126, 0.27564, -0.27564, 0.96126, 31.06894, -504.7059)"/><path class="cls-7" d="M731.58827,344.6287h60a18,18,0,0,1,18,18v180a0,0,0,0,1,0,0h-96a0,0,0,0,1,0,0v-180a18,18,0,0,1,18-18Z" transform="translate(47.85155 -497.2338) rotate(16)"/><rect class="cls-28" x="713.58827" y="410.6287" width="96" height="66" transform="matrix(0.96126, 0.27564, -0.27564, 0.96126, 47.85155, -497.2338)"/><rect class="cls-7" x="713.58827" y="410.6287" width="96" height="66" transform="matrix(0.96126, 0.27564, -0.27564, 0.96126, 47.85155, -497.2338)"/><rect class="cls-29" x="695.39621" y="474.07198" width="96" height="66" transform="translate(64.63416 -489.7617) rotate(16)"/><rect class="cls-7" x="695.39621" y="474.07198" width="96" height="66" transform="translate(64.63416 -489.7617) rotate(16)"/><circle class="cls-7" cx="582.67687" cy="311.12728" r="8"/><rect class="cls-26" x="566.20337" y="29.12343" width="96" height="308" rx="18"/><rect class="cls-18" x="558.20337" y="25.12343" width="96" height="308" rx="18"/><rect class="cls-7" x="558.20337" y="25.12343" width="96" height="308" rx="18"/><path class="cls-7" d="M576.20337,25.12343h60a18,18,0,0,1,18,18v180a0,0,0,0,1,0,0h-96a0,0,0,0,1,0,0v-180A18,18,0,0,1,576.20337,25.12343Z"/><path class="cls-30" d="M576.20337,25.12343h60a18,18,0,0,1,18,18v48a0,0,0,0,1,0,0h-96a0,0,0,0,1,0,0v-48A18,18,0,0,1,576.20337,25.12343Z"/><path class="cls-7" d="M576.20337,25.12343h60a18,18,0,0,1,18,18v48a0,0,0,0,1,0,0h-96a0,0,0,0,1,0,0v-48A18,18,0,0,1,576.20337,25.12343Z"/><rect class="cls-31" x="558.20337" y="91.12343" width="96" height="66"/><rect class="cls-32" x="558.20337" y="91.12343" width="96" height="66"/><rect class="cls-33" x="558.20337" y="157.12343" width="96" height="66"/><rect class="cls-7" x="558.20337" y="157.12343" width="96" height="66"/><circle class="cls-7" cx="581.5367" cy="310.12343" r="8"/><path class="cls-16" d="M676.294,544.22754H674.5918v2.90527h-.84473v-6.81543H676.294c1.95507,0,2.84765.83887,2.84765,1.96C679.1416,543.37891,678.27344,544.22754,676.294,544.22754Zm0-.585c1.42382,0,1.97949-.52735,1.97949-1.36524,0-.87793-.55567-1.38476-1.97949-1.38476H674.5918v2.75Z" transform="translate(-103.93173 -304.49705)"/><path class="cls-16" d="M685.61035,545.51465h-3.83789l-.73633,1.61816h-.89355l3.07812-6.72754h.9541l3.06543,6.72754h-.89355Zm-1.91894-4.25195-1.665,3.68652h3.33105Z" transform="translate(-103.93173 -304.49705)"/><path class="cls-16" d="M695.12012,540.31738v6.81543h-.84473l-4.6709-5.7334v5.7334h-.84472v-6.81543h.84472l4.6709,5.72364v-5.72364Z" transform="translate(-103.93173 -304.49705)"/><path class="cls-16" d="M696.60352,540.31738h5.54v.56543h-2.34179v6.25H698.957v-6.25h-2.35351Z" transform="translate(-103.93173 -304.49705)"/><path class="cls-16" d="M707.44141,547.20117c-2.36621,0-4.17676-1.43359-4.17676-3.48144,0-2.03711,1.81055-3.48047,4.17676-3.48047,2.37695,0,4.17578,1.44336,4.17578,3.48047C711.61719,545.76758,709.81836,547.20117,707.44141,547.20117Zm0-.59472c1.87011,0,3.30664-1.10157,3.30664-2.88672,0-1.78418-1.43653-2.876-3.30664-2.876-1.8711,0-3.30762,1.0918-3.30762,2.876C704.13379,545.50488,705.57031,546.60645,707.44141,546.60645Z" transform="translate(-103.93173 -304.49705)"/><path class="cls-16" d="M719.69043,540.31738v6.81543h-.84473l-4.6709-5.7334v5.7334h-.84472v-6.81543h.84472l4.6709,5.72364v-5.72364Z" transform="translate(-103.93173 -304.49705)"/><path class="cls-16" d="M726.18262,540.87305h-3.56055V543.418h3.19824v.56543h-3.19824v2.584h3.56055v.56543h-4.40528v-6.82519h4.40528Z" transform="translate(-103.93173 -304.49705)"/><path class="cls-16" d="M728.37305,540.19922h1.56347v.23828h-.62988v2.00586h-.30078V540.4375h-.63281Z" transform="translate(-103.93173 -304.49705)"/><path class="cls-16" d="M730.35156,540.21582h.32422l.84766,1.84082.84765-1.84082h.32129v2.22754h-.30078v-1.66113l-.76172,1.66113H731.418l-.76465-1.66406v1.66406h-.30176Z" transform="translate(-103.93173 -304.49705)"/></g></g></svg>