<svg xmlns="http://www.w3.org/2000/svg" viewBox="0 0 909.4126 819.34353"><defs><style>.cls-1{isolation:isolate;}.cls-2{fill:#646464;}.cls-3{opacity:0.15;}.cls-4{fill:none;stroke:#474747;stroke-linecap:round;stroke-linejoin:round;stroke-width:6px;}.cls-5{fill:#fff;}.cls-6{fill:#d6d6d4;}.cls-7{fill:#bababa;}.cls-8{fill:#5eb173;}.cls-10,.cls-9{fill:#60a06c;}.cls-9{opacity:0.34;mix-blend-mode:multiply;}.cls-11{fill:#7c7c7c;}.cls-12{mix-blend-mode:overlay;}.cls-13{fill:#f6f9e4;}</style></defs><g class="cls-1"><g id="Layer_1" data-name="Layer 1"><path class="cls-2" d="M63.243,959.18207c0,2.53683-1.23445,3.68526-2.63985,3.68526a2.05684,2.05684,0,0,1-2.14234-1.406,2.17116,2.17116,0,0,1-1.76537.8405,2.79183,2.79183,0,0,1,0-5.57118,2.23361,2.23361,0,0,1,1.64538.686v-.51394h1.57689v3.87374c0,.75393.257,1.38732,1.04542,1.38732.90844,0,1.6799-.87337,1.6799-2.98174a5.263,5.263,0,0,0-5.39913-5.31366,5.65977,5.65977,0,1,0,.30847,11.31221,8.31973,8.31973,0,0,0,2.8623-.44491v.58189a9.023,9.023,0,0,1-2.8623.412,6.2092,6.2092,0,1,1-.30847-12.40914A5.85948,5.85948,0,0,1,63.243,959.18207Zm-4.90218.343a1.32817,1.32817,0,1,0-1.31937,1.33691A1.28731,1.28731,0,0,0,58.34083,959.52506Z" transform="translate(-51.00537 -148.13368)"/><path class="cls-2" d="M69.40922,955.08587v2.00536a2.26388,2.26388,0,0,0-2.6393,2.39986v4.31865H64.91907v-8.56936h1.85085v1.43992A2.6969,2.6969,0,0,1,69.40922,955.08587Z" transform="translate(-51.00537 -148.13368)"/><path class="cls-2" d="M74.58426,962.33585a2.61455,2.61455,0,0,0,2.21083-1.063l1.52538.89091a4.32822,4.32822,0,0,1-3.75375,1.86838,4.509,4.509,0,1,1-.137-9.01536A4.32481,4.32481,0,0,1,78.732,959.5415a5.65581,5.65581,0,0,1-.06849.77146H71.842A2.57555,2.57555,0,0,0,74.58426,962.33585Zm2.27931-3.53075a2.38476,2.38476,0,0,0-2.45081-2.10837,2.49184,2.49184,0,0,0-2.58834,2.10837Z" transform="translate(-51.00537 -148.13368)"/><path class="cls-2" d="M88.944,955.24038v8.56936H87.09311v-1.2339a3.52083,3.52083,0,0,1-2.99928,1.45635,4.51443,4.51443,0,0,1,0-9.01536,3.55293,3.55293,0,0,1,2.99928,1.43992v-1.21637Zm-1.85085,4.28468a2.70827,2.70827,0,1,0-2.70779,2.74176A2.64845,2.64845,0,0,0,87.09311,959.52506Z" transform="translate(-51.00537 -148.13368)"/><path class="cls-2" d="M91.10109,951.2976h1.85085v12.51214H91.10109Z" transform="translate(-51.00537 -148.13368)"/><path class="cls-2" d="M102.9256,955.24038l-3.34227,8.56936H97.441l-3.34227-8.56936h2.0229l2.39931,6.51249,2.38232-6.51249Z" transform="translate(-51.00537 -148.13368)"/><path class="cls-2" d="M104.24333,955.24038h1.85085v8.91235c0,2.36479-1.16541,3.47925-3.51322,3.3072v-1.78181c1.1309.103,1.66237-.32546,1.66237-1.52539Zm-.257-2.4689a1.18267,1.18267,0,1,1,1.1824,1.1835A1.18509,1.18509,0,0,1,103.98636,952.77148Z" transform="translate(-51.00537 -148.13368)"/><path class="cls-2" d="M115.99935,955.24038l-3.29076,8.84332c-.80544,2.1774-2.21083,3.27432-4.18222,3.15378v-1.7314a2.143,2.143,0,0,0,2.27986-1.67881l.08548-.172-3.63376-8.41485h2.02289l2.55328,6.221,2.19384-6.221Z" transform="translate(-51.00537 -148.13368)"/><path class="cls-2" d="M211.87909,938.69618a3.64765,3.64765,0,0,1-3.61718,3.81347h-2.97364v-7.626h2.97364A3.64738,3.64738,0,0,1,211.87909,938.69618Zm-.96972,0a2.669,2.669,0,0,0-2.64746-2.8545H206.301v5.709h1.96094A2.669,2.669,0,0,0,210.90937,938.69618Z" transform="translate(-51.00537 -148.13368)"/><path class="cls-2" d="M219.53241,940.79871h-3.43164l-.62109,1.71094h-1.0791l2.84375-7.626h1.14355l2.84375,7.626h-1.07812Zm-.34863-.94726-1.373-3.75879-1.36133,3.75879Z" transform="translate(-51.00537 -148.13368)"/><path class="cls-2" d="M226.41034,939.42664v3.083h-1.01269V939.4159l-2.69141-4.53222H223.84l2.06934,3.57324,2.07031-3.57324h1.13281Z" transform="translate(-51.00537 -148.13368)"/><path class="cls-2" d="M241.4621,934.88368v.90429l-2.77832,6.72168h-1.05664l2.75684-6.668h-3.68262v-.958Z" transform="translate(-51.00537 -148.13368)"/><path class="cls-2" d="M249.22284,938.83778h.01075l-2.46192,3.67187h-1.14453l1.8086-2.66894c-.11915.01074-.23926.02148-.37012.02148a2.56089,2.56089,0,1,1,2.626-2.56055A2.57187,2.57187,0,0,1,249.22284,938.83778Zm-2.15722.06543a1.59642,1.59642,0,1,0-1.62305-1.60157A1.52648,1.52648,0,0,0,247.06562,938.90321Z" transform="translate(-51.00537 -148.13368)"/><path class="cls-2" d="M58.87909,938.69618a3.64765,3.64765,0,0,1-3.61718,3.81347H52.28827v-7.626h2.97364A3.64738,3.64738,0,0,1,58.87909,938.69618Zm-.96972,0a2.669,2.669,0,0,0-2.64746-2.8545H53.301v5.709h1.96094A2.669,2.669,0,0,0,57.90937,938.69618Z" transform="translate(-51.00537 -148.13368)"/><path class="cls-2" d="M66.95722,941.55067v.959H62.40351v-7.626h4.499v.958H63.4162v2.34278h3.21387v.94824H63.4162v2.418Z" transform="translate(-51.00537 -148.13368)"/><path class="cls-2" d="M70.04413,940.77723l.8711-.501A1.94714,1.94714,0,0,0,72.95234,941.66c1.0791,0,1.6123-.49023,1.6123-1.17675,0-.78418-.6748-1.0459-1.79687-1.39454-1.22071-.39257-2.39746-.77343-2.39746-2.18945a2.20164,2.20164,0,0,1,2.39746-2.15723,2.7413,2.7413,0,0,1,2.582,1.666l-.84961.49121a1.77488,1.77488,0,0,0-1.73242-1.17676c-.81739,0-1.38379.43555-1.38379,1.13282,0,.708.53418.96972,1.60156,1.30761,1.3291.43555,2.582.82813,2.582,2.29883,0,1.33984-1.0791,2.18945-2.63672,2.18945A2.86113,2.86113,0,0,1,70.04413,940.77723Z" transform="translate(-51.00537 -148.13368)"/><path class="cls-2" d="M80.01679,934.88368v7.626h-1.0127v-7.626Z" transform="translate(-51.00537 -148.13368)"/><path class="cls-2" d="M91.29511,939.18641a3.45334,3.45334,0,0,1-3.73633,3.46484,3.955,3.955,0,1,1-.02246-7.90918,3.80407,3.80407,0,0,1,3.30176,1.84082l-.87207.51172a2.73251,2.73251,0,0,0-2.44043-1.37207,2.96908,2.96908,0,1,0,.04394,5.9375,2.49712,2.49712,0,0,0,2.71289-2.01562h-2.7998v-.915h3.8125Z" transform="translate(-51.00537 -148.13368)"/><path class="cls-2" d="M100.57148,934.88368v7.626h-.81739l-3.92187-5.69824v5.69824h-1.0127v-7.626h.81641l3.92285,5.68652v-5.68652Z" transform="translate(-51.00537 -148.13368)"/><path class="cls-2" d="M109.052,941.55067v.959h-4.55371v-7.626h4.499v.958h-3.48633v2.34278h3.21387v.94824h-3.21387v2.418Z" transform="translate(-51.00537 -148.13368)"/><path class="cls-2" d="M119.15546,938.69618a3.64765,3.64765,0,0,1-3.61719,3.81347h-2.97363v-7.626h2.97363A3.64739,3.64739,0,0,1,119.15546,938.69618Zm-.96972,0a2.66905,2.66905,0,0,0-2.64747-2.8545h-1.96093v5.709h1.96093A2.669,2.669,0,0,0,118.18574,938.69618Z" transform="translate(-51.00537 -148.13368)"/><path class="cls-2" d="M133.1955,940.35243a2.16042,2.16042,0,0,1-2.21191,2.15722h-3.29v-7.626h3.0498a2.08579,2.08579,0,0,1,2.13574,2.08007,1.897,1.897,0,0,1-.82812,1.59082A1.94362,1.94362,0,0,1,133.1955,940.35243Zm-4.48926-4.52149v2.332h2.03711a1.16647,1.16647,0,0,0,0-2.332Zm3.48633,4.48926a1.21121,1.21121,0,0,0-1.209-1.23145h-2.27735v2.47266h2.27735A1.21294,1.21294,0,0,0,132.19257,940.3202Z" transform="translate(-51.00537 -148.13368)"/><path class="cls-2" d="M139.3537,939.42664v3.083H138.341V939.4159l-2.69141-4.53222h1.13379l2.06934,3.57324,2.07031-3.57324h1.13281Z" transform="translate(-51.00537 -148.13368)"/><path class="cls-2" d="M204.8332,958.10047a6.30587,6.30587,0,0,1,6.47851-6.4248,6.10444,6.10444,0,0,1,5.32813,2.95605l-1.77051,1.02637a3.9628,3.9628,0,0,0-3.55762-2,4.44287,4.44287,0,0,0,0,8.88574,3.94255,3.94255,0,0,0,3.55762-2.001l1.77051,1.00976a6.079,6.079,0,0,1-5.32813,2.97363A6.30609,6.30609,0,0,1,204.8332,958.10047Z" transform="translate(-51.00537 -148.13368)"/><path class="cls-2" d="M217.68866,959.871a4.67289,4.67289,0,1,1,4.67286,4.65527A4.62,4.62,0,0,1,217.68866,959.871Zm7.43458,0a2.76146,2.76146,0,1,0-2.76172,2.79688A2.71847,2.71847,0,0,0,225.12324,959.871Z" transform="translate(-51.00537 -148.13368)"/><path class="cls-2" d="M235.87128,955.09168v.35352h2.08887v1.8418h-2.08887v7.00879h-1.91113V957.287h-2.95606v7.00879H229.092V957.287h-1.34473v-1.8418H229.092v-.17676c0-2.38965,1.3457-3.76953,4-3.59277v1.84082c-1.34473-.124-2.0879.38965-2.0879,1.752v.17676h2.95606v-.35352c0-2.38964,1.34473-3.7705,4-3.59277v1.84082C236.61445,953.21571,235.87128,953.7284,235.87128,955.09168Z" transform="translate(-51.00537 -148.13368)"/><path class="cls-2" d="M243.008,962.77332a2.69943,2.69943,0,0,0,2.2832-1.09765l1.57618.9209a4.47155,4.47155,0,0,1-3.877,1.92968,4.65662,4.65662,0,1,1-.1416-9.31054,4.46638,4.46638,0,0,1,4.44336,4.67285,5.83748,5.83748,0,0,1-.07129.79687H240.176A2.66,2.66,0,0,0,243.008,962.77332Zm2.35449-3.64648a2.46314,2.46314,0,0,0-2.53125-2.17676,2.57292,2.57292,0,0,0-2.67285,2.17676Z" transform="translate(-51.00537 -148.13368)"/><path class="cls-2" d="M253.26093,962.77332a2.70075,2.70075,0,0,0,2.2832-1.09765l1.5752.9209a4.46977,4.46977,0,0,1-3.876,1.92968,4.65662,4.65662,0,1,1-.1416-9.31054,4.46619,4.46619,0,0,1,4.44238,4.67285,5.839,5.839,0,0,1-.07031.79687H250.4289A2.66,2.66,0,0,0,253.26093,962.77332Zm2.35352-3.64648a2.46162,2.46162,0,0,0-2.53028-2.17676,2.57224,2.57224,0,0,0-2.67285,2.17676Z" transform="translate(-51.00537 -148.13368)"/><path class="cls-2" d="M846.13281,938.69629a3.64766,3.64766,0,0,1-3.61719,3.81348H839.543v-7.626h2.97265A3.64739,3.64739,0,0,1,846.13281,938.69629Zm-.96875,0a2.66922,2.66922,0,0,0-2.64844-2.85449h-1.96093v5.709h1.96093A2.66922,2.66922,0,0,0,845.16406,938.69629Z" transform="translate(-51.00537 -148.13368)"/><path class="cls-2" d="M849.25391,938.69629a3.94922,3.94922,0,1,1,3.94336,3.95508A3.91747,3.91747,0,0,1,849.25391,938.69629Zm6.88671,0a2.94246,2.94246,0,1,0-2.94335,2.96387A2.91016,2.91016,0,0,0,856.14062,938.69629Z" transform="translate(-51.00537 -148.13368)"/><path class="cls-2" d="M859.7832,934.88379h1.06836l1.74219,6.27539,1.85352-6.27539h1.02343l1.85157,6.27539,1.74414-6.27539h1.0664l-2.18945,7.626h-1.17578l-1.8086-6.08985-1.80859,6.08985h-1.17773Z" transform="translate(-51.00537 -148.13368)"/><path class="cls-2" d="M879.26953,934.88379v7.626h-.81836l-3.92187-5.69825v5.69825h-1.01172v-7.626h.8164l3.92188,5.68652v-5.68652Z" transform="translate(-51.00537 -148.13368)"/><path class="cls-2" d="M887.49805,941.55078v.959h-4.30274v-7.626H884.209v6.667Z" transform="translate(-51.00537 -148.13368)"/><path class="cls-2" d="M889.877,938.69629a3.94922,3.94922,0,1,1,3.94336,3.95508A3.91748,3.91748,0,0,1,889.877,938.69629Zm6.88672,0a2.94246,2.94246,0,1,0-2.94336,2.96387A2.91016,2.91016,0,0,0,896.76367,938.69629Z" transform="translate(-51.00537 -148.13368)"/><path class="cls-2" d="M905.418,940.79883h-3.43164l-.6211,1.71094h-1.07812l2.84375-7.626h1.14258l2.84375,7.626h-1.07813Zm-.34766-.94727-1.373-3.75879-1.36133,3.75879Z" transform="translate(-51.00537 -148.13368)"/><path class="cls-2" d="M916.90625,938.69629a3.64766,3.64766,0,0,1-3.61719,3.81348h-2.97461v-7.626h2.97461A3.64739,3.64739,0,0,1,916.90625,938.69629Zm-.9707,0a2.66886,2.66886,0,0,0-2.64649-2.85449h-1.96094v5.709h1.96094A2.66886,2.66886,0,0,0,915.93555,938.69629Z" transform="translate(-51.00537 -148.13368)"/><path class="cls-2" d="M926.457,935.8418v2.47363h3.23633v.959H926.457v3.23536h-1.01367v-7.626H929.834v.958Z" transform="translate(-51.00537 -148.13368)"/><path class="cls-2" d="M936.168,939.58984h-1.79883v2.91993h-1.01172v-7.626h3.04883a2.35292,2.35292,0,0,1,.79687,4.57519L939,942.50977h-1.12109Zm-1.79883-.915h2.03711a1.42313,1.42313,0,0,0,0-2.84375h-2.03711Z" transform="translate(-51.00537 -148.13368)"/><path class="cls-2" d="M941.86914,938.69629a3.94922,3.94922,0,1,1,3.94336,3.95508A3.91747,3.91747,0,0,1,941.86914,938.69629Zm6.88672,0a2.94246,2.94246,0,1,0-2.94336,2.96387A2.91016,2.91016,0,0,0,948.75586,938.69629Z" transform="translate(-51.00537 -148.13368)"/><path class="cls-2" d="M960.418,942.50977H959.416v-5.959l-2.4961,4.15039h-.13086l-2.49414-4.13965v5.94825h-1.01367v-7.626h1.14453l2.42969,4.03027,2.418-4.03027H960.418Z" transform="translate(-51.00537 -148.13368)"/><path class="cls-2" d="M839.31836,952.89648a1.22071,1.22071,0,1,1,1.2207,1.22168A1.22366,1.22366,0,0,1,839.31836,952.89648Zm.26562,2.54883h1.91114v8.85059H839.584Z" transform="translate(-51.00537 -148.13368)"/><path class="cls-2" d="M843.709,951.375h1.91211v12.9209H843.709Z" transform="translate(-51.00537 -148.13368)"/><path class="cls-2" d="M847.834,951.375h1.91211v12.9209H847.834Z" transform="translate(-51.00537 -148.13368)"/><path class="cls-2" d="M851.96,951.375h1.91113v12.9209H851.96Z" transform="translate(-51.00537 -148.13368)"/><path class="cls-2" d="M863.96289,955.44531v8.85059h-1.91211v-1.13281a3.04673,3.04673,0,0,1-2.74414,1.36328,3.305,3.305,0,0,1-3.39844-3.64649v-5.43457h1.91211v5.24024a1.84472,1.84472,0,0,0,1.98242,2.05273c1.25684,0,2.24805-.74316,2.24805-2.54883v-4.74414Z" transform="translate(-51.00537 -148.13368)"/><path class="cls-2" d="M872.62109,961.7998c0,1.77051-1.53906,2.72657-3.45117,2.72657a3.69455,3.69455,0,0,1-3.61133-2.07129l1.64649-.95606a1.94432,1.94432,0,0,0,1.96484,1.27442c.84961,0,1.50488-.28321,1.50488-.99121,0-1.5752-4.76074-.69043-4.76074-3.8584,0-1.66406,1.4336-2.708,3.23828-2.708a3.566,3.566,0,0,1,3.27539,1.84082l-1.61132.90234a1.72419,1.72419,0,0,0-1.66407-1.00878c-.68945,0-1.292.30078-1.292.93847C867.86035,959.499,872.62109,958.52539,872.62109,961.7998Z" transform="translate(-51.00537 -148.13368)"/><path class="cls-2" d="M876.69531,957.28711v4.24805c0,1.13281.74414,1.11425,2.19531,1.04394v1.7168c-2.9375.35449-4.10546-.46-4.10546-2.76074v-4.24805h-1.62891v-1.8418h1.62891v-1.91113l1.91015-.56641v2.47754h2.19531v1.8418Z" transform="translate(-51.00537 -148.13368)"/><path class="cls-2" d="M885.35352,955.28613v2.07129a2.33747,2.33747,0,0,0-2.72461,2.47852v4.46H880.7168v-8.85059h1.91211v1.48731A2.7823,2.7823,0,0,1,885.35352,955.28613Z" transform="translate(-51.00537 -148.13368)"/><path class="cls-2" d="M895.28613,955.44531v8.85059H893.375v-1.27442a3.63741,3.63741,0,0,1-3.09766,1.50489,4.6622,4.6622,0,0,1,0-9.31055,3.67059,3.67059,0,0,1,3.09766,1.48633v-1.25684Zm-1.91113,4.42578a2.79709,2.79709,0,1,0-2.79688,2.832A2.73514,2.73514,0,0,0,893.375,959.87109Z" transform="translate(-51.00537 -148.13368)"/><path class="cls-2" d="M900.26367,957.28711v4.24805c0,1.13281.74414,1.11425,2.19531,1.04394v1.7168c-2.9375.35449-4.10546-.46-4.10546-2.76074v-4.24805h-1.62891v-1.8418h1.62891v-1.91113l1.91015-.56641v2.47754H902.459v1.8418Z" transform="translate(-51.00537 -148.13368)"/><path class="cls-2" d="M903.93066,952.89648a1.2212,1.2212,0,1,1,1.22168,1.22168A1.22387,1.22387,0,0,1,903.93066,952.89648Zm.26563,2.54883h1.91113v8.85059h-1.91113Z" transform="translate(-51.00537 -148.13368)"/><path class="cls-2" d="M907.82617,959.87109A4.67289,4.67289,0,1,1,912.5,964.52637,4.62018,4.62018,0,0,1,907.82617,959.87109Zm7.43457,0A2.76146,2.76146,0,1,0,912.5,962.668,2.71825,2.71825,0,0,0,915.26074,959.87109Z" transform="translate(-51.00537 -148.13368)"/><path class="cls-2" d="M926.96484,958.8623v5.4336h-1.91211v-5.23926a1.84426,1.84426,0,0,0-1.98242-2.05273c-1.25683,0-2.248.74316-2.248,2.54882v4.74317h-1.91211v-8.85059h1.91211v1.13281a3.047,3.047,0,0,1,2.74414-1.3623A3.30447,3.30447,0,0,1,926.96484,958.8623Z" transform="translate(-51.00537 -148.13368)"/><path class="cls-2" d="M935.5,961.7998c0,1.77051-1.541,2.72657-3.45117,2.72657a3.69268,3.69268,0,0,1-3.61133-2.07129l1.64648-.95606a1.94269,1.94269,0,0,0,1.96485,1.27442c.84961,0,1.5039-.28321,1.5039-.99121,0-1.5752-4.76171-.69043-4.76171-3.8584,0-1.66406,1.43359-2.708,3.23925-2.708a3.56241,3.56241,0,0,1,3.27442,1.84082l-1.61035.90234a1.726,1.726,0,0,0-1.66407-1.00878c-.69043,0-1.292.30078-1.292.93847C930.73828,959.499,935.5,958.52539,935.5,961.7998Z" transform="translate(-51.00537 -148.13368)"/><path class="cls-2" d="M936.83008,963.18066a1.32813,1.32813,0,0,1,2.65625,0,1.32813,1.32813,0,0,1-2.65625,0Z" transform="translate(-51.00537 -148.13368)"/><path class="cls-2" d="M940.31934,959.87109a4.56612,4.56612,0,0,1,4.67285-4.65527,4.37321,4.37321,0,0,1,3.94726,2.2832l-1.64648.95606a2.472,2.472,0,0,0-2.31836-1.36328,2.779,2.779,0,0,0,0,5.55761,2.59411,2.59411,0,0,0,2.35351-1.3623l1.64649.9375a4.45092,4.45092,0,0,1-3.98242,2.30176A4.57719,4.57719,0,0,1,940.31934,959.87109Z" transform="translate(-51.00537 -148.13368)"/><path class="cls-2" d="M949.72168,959.87109a4.67288,4.67288,0,1,1,4.67285,4.65528A4.62,4.62,0,0,1,949.72168,959.87109Zm7.43457,0a2.76194,2.76194,0,1,0-2.76172,2.79688A2.71847,2.71847,0,0,0,957.15625,959.87109Z" transform="translate(-51.00537 -148.13368)"/><g class="cls-3"><line class="cls-4" x1="117.99457" y1="600.58975" x2="779.99457" y2="600.58975"/><line class="cls-4" x1="681.51837" y1="600.58974" x2="681.51837" y2="275.29286"/><path class="cls-4" d="M758.5917,335.11174c24.27466,31.53063,87.36563,232.923-26.068,232.923s-50.34262-201.39235-26.068-232.923c8.48049-11.0154,18.38172-15.78281,26.068-15.78281S750.11121,324.09634,758.5917,335.11174Z" transform="translate(-51.00537 -148.13368)"/><line class="cls-4" x1="681.51837" y1="325.32262" x2="706.71668" y2="300.1243"/><line class="cls-4" x1="681.51837" y1="384.03201" x2="647.23977" y2="349.75341"/><circle class="cls-5" cx="764.6565" cy="408.93714" r="49.38746"/><circle class="cls-4" cx="764.6565" cy="408.93714" r="49.38746"/><line class="cls-4" x1="681.51837" y1="492.14103" x2="772.88339" y2="400.776"/><line class="cls-4" x1="774.81689" y1="437.9413" x2="735.7181" y2="437.9413"/><line class="cls-4" x1="755.26749" y1="418.3919" x2="755.26749" y2="400.776"/><line class="cls-4" x1="681.51837" y1="551.61735" x2="599.45863" y2="469.55761"/><ellipse class="cls-4" cx="661.62188" cy="623.27688" rx="42.30981" ry="57.50917" transform="translate(-292.92601 376.0044) rotate(-37.02906)"/><line class="cls-4" x1="640.78914" y1="510.88812" x2="640.78914" y2="484.40287"/><line class="cls-4" x1="599.45863" y1="489.8676" x2="619.76862" y2="489.8676"/><rect class="cls-4" x="187.36591" y="541.79115" width="22.30367" height="55.1781"/><rect class="cls-4" x="417.96626" y="541.79115" width="22.30367" height="55.1781"/><rect class="cls-4" x="201.74199" y="398.32175" width="15.61257" height="118.29804"/><rect class="cls-4" x="410.28127" y="398.32175" width="15.61257" height="118.29804"/><rect class="cls-5" x="150.79872" y="416.39776" width="312.25133" height="33.4555"/><rect class="cls-4" x="150.79872" y="416.39776" width="312.25133" height="33.4555"/><rect class="cls-5" x="150.79872" y="449.85326" width="312.25133" height="33.4555"/><rect class="cls-4" x="150.79872" y="449.85326" width="312.25133" height="33.4555"/><circle class="cls-4" cx="418.08756" cy="434.3545" r="4.46073"/><circle class="cls-4" cx="418.08756" cy="466.58101" r="4.46073"/><circle class="cls-4" cx="209.54828" cy="434.3545" r="4.46073"/><circle class="cls-4" cx="209.54828" cy="466.58101" r="4.46073"/><rect class="cls-4" x="134.75765" y="516.61979" width="353.51311" height="25.17136"/></g><path class="cls-6" d="M421.99716,712.6202l3.95791,28.62251c.59206,4.28164,4.59619,7.4807,9.36816,7.4807H563.49981c4.772,0,8.7761-3.19906,9.36817-7.4807l3.9579-28.62251Z" transform="translate(-51.00537 -148.13368)"/><path class="cls-7" d="M560.73893,748.72341l9.32992-2.41185,6.757-33.69134H421.99709l1.52125,11.00082H551.31557l.20433.00022C569.79083,723.62126,560.73893,748.72341,560.73893,748.72341Z" transform="translate(-51.00537 -148.13368)"/><path class="cls-8" d="M592.34169,702.9358l34.96178-279.51026H371.51957L406.4813,702.9358a11.14945,11.14945,0,0,0,11.16241,9.6844H581.17927A11.14946,11.14946,0,0,0,592.34169,702.9358Z" transform="translate(-51.00537 -148.13368)"/><path class="cls-8" d="M592.34169,702.9358l34.96178-279.51026H371.51957L406.4813,702.9358a11.14945,11.14945,0,0,0,11.16241,9.6844H581.17927A11.14946,11.14946,0,0,0,592.34169,702.9358Z" transform="translate(-51.00537 -148.13368)"/><path class="cls-9" d="M492.29511,652.19422a8.22585,8.22585,0,0,1-5.06543-1.84961,11.30965,11.30965,0,0,1-3.63965-8.41308,15.09777,15.09777,0,0,1,4.24121-11.41211c.76075-.72949,3.07422-2.95117,6.08692-2.95117a5.97056,5.97056,0,0,1,.93457.07324,7.93634,7.93634,0,0,1,5.19726,3.75,15.20808,15.20808,0,0,1,1.96778,11.59765c-1.11133,4.35645-4.81934,9.0625-9.50489,9.20215Zm.99023-13.75488c-.86914,2.07617-.66992,3.42773-.42089,3.65527a.58229.58229,0,0,0,.08886.06153,2.74367,2.74367,0,0,0,.49414-.91016A4.26538,4.26538,0,0,0,493.28534,638.43934Z" transform="translate(-51.00537 -148.13368)"/><path class="cls-9" d="M503.92011,664.5868a6.46925,6.46925,0,0,1-3.626-1.07226c-2.23925-1.50489-2.07324-3.47559-1.45507-10.80567.39062-4.64062.98242-11.6543,1.47851-22.70605.02539-.56348.05859-1.127.09961-1.68653-.06445-.001-.12793-.00195-.19141-.00195q-.353,0-.68164.03027c-.79394.07422-1.58984.10645-2.38574.13672-.86426.03321-1.68066.06543-2.47851.15528-.334.03808-.62989.07519-.89063.10839a12.29449,12.29449,0,0,1-1.50586.13575,2.87761,2.87761,0,0,1-2.16894-.85352c-2.05957-2.14648.19726-6.62793,1.93359-8.32812a7.72932,7.72932,0,0,1,5.62891-2.00684,19.89455,19.89455,0,0,1,4.59179.62891,13.52026,13.52026,0,0,1,4.73242-6.88965,10.45639,10.45639,0,0,1,5.918-2.082,8.14459,8.14459,0,0,1,1.19532.08789,7.05637,7.05637,0,0,1,4.07324,1.93847,6.95183,6.95183,0,0,1,1.93066,4.88672,8.01572,8.01572,0,0,1,2.62305-.4541,7.40251,7.40251,0,0,1,1.07226.0791,6.39,6.39,0,0,1,3.68067,1.75488,6.90791,6.90791,0,0,1,1.57129,6.22461l-.39258,1.708a2.70928,2.70928,0,0,0,.834-.541,4.24988,4.24988,0,0,0,1.07227-2.77832l.34961-4.1084,5.14258,4.80859.16113.32324c.90039,1.80176.29395,4.12989-1.752,6.7334-1.50293,1.917-4.38672,2.84961-8.81641,2.84961a41.62619,41.62619,0,0,1-4.36523-.252,81.49113,81.49113,0,0,0-.47754,10.32519c.05273,2.03516.11328,3.85157.168,5.47364.29687,8.86914.41992,12.54-2.44141,14.63769a6.11993,6.11993,0,0,1-3.60156,1.14649h-.001a5.86892,5.86892,0,0,1-3.29-.97461,3.47411,3.47411,0,0,1-1.65527-2.76368,5.81956,5.81956,0,0,1-2.10352,2.86719A6.75227,6.75227,0,0,1,503.92011,664.5868Zm6.80371-34.04394c-.44336,5.00488-.3291,9.7666-.32812,9.82128.06054,2.34668.13086,4.44239.19336,6.31446.02539.76953.05078,1.50488.07226,2.208.28418-3.70215.6084-8.53516.89551-14.93067.04883-1.084.126-2.13183.23047-3.13379Q511.25263,630.683,510.72382,630.54286Zm12.832-4.98145a14.853,14.853,0,0,0,3.01953.36523,7.38326,7.38326,0,0,0,.89844-.05078l-1.29883-.69238a2.44747,2.44747,0,0,0-1.13086-.31348,1.74052,1.74052,0,0,0-.26172.01954A3.17337,3.17337,0,0,0,523.55585,625.56141Zm-9.72754-3.22266a12.82983,12.82983,0,0,1,1.94043-3.13964c-.06445-.00489-.12793-.00782-.1914-.00782a2.3909,2.3909,0,0,0-.38379.03125,4.1588,4.1588,0,0,0-1.96192,1.252,4.71884,4.71884,0,0,0-.77929,1.32812S513.467,622.19813,513.82831,622.33875Z" transform="translate(-51.00537 -148.13368)"/><path class="cls-9" d="M526.50605,654.65516a7.75047,7.75047,0,0,1-5.56348-2.01855c-1.92383-1.92481-2.55078-5.36133-1.7207-9.42774.90137-4.41406,3.82617-10.32422,9.10254-12.45019a12.43444,12.43444,0,0,1,4.35547-.86524,7.20937,7.20937,0,0,1,4.8125,1.63965,8.1444,8.1444,0,0,1,2.23828,8.22656,8.71822,8.71822,0,0,1-4.82617,5.4209,2.58837,2.58837,0,0,1,.54687,1.37207,7.62829,7.62829,0,0,1-2.292,5.61817A9.63618,9.63618,0,0,1,526.50605,654.65516ZM531.5998,637.829a4.11086,4.11086,0,0,0-.98438.56933A7.03723,7.03723,0,0,0,531.5998,637.829Z" transform="translate(-51.00537 -148.13368)"/><path class="cls-9" d="M542.60175,655.06727a8.389,8.389,0,0,1-5.94629-2.25684c-1.89941-1.95019-2.541-5.23828-1.76074-9.02148.99707-4.83887,3.98437-8.93457,7.6084-10.43359a11.34507,11.34507,0,0,1,4.17187-.81836,6.86459,6.86459,0,0,1,5.34961,2.14355c2.23242,2.53809,1.42285,6.03223,1.12207,7.042a8.77314,8.77314,0,0,1-3.69336,4.81934,2.5339,2.5339,0,0,1,.6416,1.52832,6.85163,6.85163,0,0,1-2.17382,5.14355A7.8385,7.8385,0,0,1,542.60175,655.06727Z" transform="translate(-51.00537 -148.13368)"/><path class="cls-9" d="M469.41132,663.02137a15.85229,15.85229,0,0,1-4.61426-.67578c-4.9541-1.50781-8.95117-5.5918-11.25683-11.49805-2.49317-6.38769-1.74512-14.48828,1.88476-21.76953a12.3543,12.3543,0,0,0-3.97851,1.81348,7.205,7.205,0,0,1-3.61817,1.44726,3.09256,3.09256,0,0,1-1.87207-.61816c-1.1455-.85449-1.71484-2.46387-1.60156-4.5293.12891-2.35449,1.22559-5.66211,3.89356-7.23437a6.76219,6.76219,0,0,1,3.48339-.88867c2.61328,0,5.59571,1.17675,8.70606,2.623a23.41851,23.41851,0,0,1,10.11719-6.8584,19.40087,19.40087,0,0,1,5.73242-.9746,7.63449,7.63449,0,0,1,6.01172,2.29492c2.97949,3.374,1.62793,9.48535-1.50391,13.07519-1.50586,1.72754-4.335,3.84766-9.25586,4.13574-.26758.01563-.52637.02344-.7793.02344a18.67115,18.67115,0,0,1-5.33691-.95508c-.45313-.12793-.88379-.26074-1.29688-.39843-1.9375,6.70507-1.04882,13.85839,2.24512,16.59668a7.49249,7.49249,0,0,0,4.50488,1.7373,4.873,4.873,0,0,0,1.13575-.13086c.11328-.02637,2.75976-.68262,3.33105-2.79687a3.48656,3.48656,0,0,0-.53906-2.98047,3.73826,3.73826,0,0,0-1.55566-.96192c-.59473-.24218-2.17579-.88281-2.03223-2.57519.16113-1.915,2.55078-2.78711,4.70312-2.78711a7.04142,7.04142,0,0,1,1.75782.21582c4.63086,1.19336,7.97656,7.72461,6.88574,13.43848a13.42326,13.42326,0,0,1-5.73828,8.25195,16.24964,16.24964,0,0,1-9.41309,2.97949Zm-1.96094-37.79883a6.00956,6.00956,0,0,0,2.84375.9336,4.54734,4.54734,0,0,0,.55078-.03516c1.72364-.21,3.7334-1.24023,4.23731-2.80176a2.47436,2.47436,0,0,0,.03711-1.7334,1.37354,1.37354,0,0,0-.793-.15136,9.14291,9.14291,0,0,0-3.70508,1.05078l-.14453.07812A10.1633,10.1633,0,0,0,467.45038,625.22254Z" transform="translate(-51.00537 -148.13368)"/><path class="cls-10" d="M371.51961,423.4255l2.74962,21.98351H587.03112a13.51625,13.51625,0,0,1,13.41175,15.19389L578.26424,690.58273a19.76073,19.76073,0,0,1-16.18817,17.5548l-25.04672,4.48269,35.62.02373.00628-.02373h8.52361a11.14943,11.14943,0,0,0,11.1625-9.6844L627.30347,423.4255Z" transform="translate(-51.00537 -148.13368)"/><path class="cls-4" d="M421.99716,712.6202l3.95791,28.62251c.59206,4.28164,4.59619,7.4807,9.36816,7.4807H563.49981c4.772,0,8.7761-3.19906,9.36817-7.4807l3.9579-28.62251Z" transform="translate(-51.00537 -148.13368)"/><path class="cls-4" d="M592.34169,702.9358l34.96178-279.51026H371.51957L406.4813,702.9358a11.14945,11.14945,0,0,0,11.16241,9.6844H581.17927A11.14946,11.14946,0,0,0,592.34169,702.9358Z" transform="translate(-51.00537 -148.13368)"/><path class="cls-2" d="M632.80791,423.42554H366.01516c-8.68984.079-7.49368-4.58581-4.48268-13.54162a25.17947,25.17947,0,0,0,0-16.24061c-3.01086-8.95562-4.20736-13.62062,4.48268-13.54162H632.80791c8.6897-.079,7.49354,4.58576,4.48268,13.54162a25.17867,25.17867,0,0,0,0,16.24061C640.30151,418.83962,641.49778,423.50468,632.80791,423.42554Z" transform="translate(-51.00537 -148.13368)"/><path class="cls-11" d="M637.29059,393.64332c1.94422-5.78284,3.12708-9.77356,1.38514-11.85632-.375,1.31713-.85047,2.76941-1.38514,4.35974a25.16736,25.16736,0,0,0-1.05261,11.86853A25.13623,25.13623,0,0,1,637.29059,393.64332Z" transform="translate(-51.00537 -148.13368)"/><path class="cls-11" d="M362.58515,398.01527a25.16882,25.16882,0,0,0-1.05274-11.86853c-.53466-1.59046-1.01-3.04261-1.385-4.35987-1.74219,2.08289-.55909,6.07361,1.385,11.85645A25.14748,25.14748,0,0,1,362.58515,398.01527Z" transform="translate(-51.00537 -148.13368)"/><path class="cls-11" d="M638.67573,414.24378c-.95582,1.14283-2.78907,1.71326-5.8678,1.68518H366.01508c-3.07861.028-4.91186-.54248-5.86767-1.68518-1.73707,6.10035-1.27906,9.24671,5.86767,9.18177H632.80793C639.95466,423.49061,640.41254,420.34413,638.67573,414.24378Z" transform="translate(-51.00537 -148.13368)"/><g class="cls-12"><path class="cls-2" d="M637.29063,409.884c-.1633-.47886-.295-.96493-.42837-1.45053a25.1555,25.1555,0,0,0,.30462,14.371C640.889,421.26488,639.64468,416.886,637.29063,409.884Z" transform="translate(-51.00537 -148.13368)"/><path class="cls-2" d="M362.86243,403.54649c1.03844-.42954,4.91019-10.10516,10.89518-10.10516H627.30347c7.23931,0,8.52023,14.56243,9.55879,14.99209.04466-.13888.38115-14.65176.42837-14.79017,3.01321-8.96279,4.20888-13.62778-4.503-13.54136l-266.50207.00373c-8.98486-.1782-7.79476,4.49024-4.753,13.53763C361.57966,393.78166,362.81777,403.40761,362.86243,403.54649Z" transform="translate(-51.00537 -148.13368)"/><path class="cls-2" d="M361.65631,422.80439a25.15652,25.15652,0,0,0,.30451-14.371c-.13353.4856-.26519.97167-.42826,1.45053C359.17828,416.88607,357.934,421.26488,361.65631,422.80439Z" transform="translate(-51.00537 -148.13368)"/></g><path class="cls-4" d="M632.80791,423.42554H366.01516c-8.68984.079-7.49368-4.58581-4.48268-13.54162a25.17947,25.17947,0,0,0,0-16.24061c-3.01086-8.95562-4.20736-13.62062,4.48268-13.54162H632.80791c8.6897-.079,7.49354,4.58576,4.48268,13.54162a25.17867,25.17867,0,0,0,0,16.24061C640.30151,418.83962,641.49778,423.50468,632.80791,423.42554Z" transform="translate(-51.00537 -148.13368)"/><path class="cls-6" d="M625.06543,380.10169H373.75761l2.46016-8.76792c3.92486-13.98806,17.29279-23.725,32.57233-23.725H590.033c15.27953,0,28.64746,9.73691,32.57232,23.725Z" transform="translate(-51.00537 -148.13368)"/><path class="cls-6" d="M625.06543,380.10169H373.75761l2.46016-8.76792c3.92486-13.98806,17.29279-23.725,32.57233-23.725H590.033c15.27953,0,28.64746,9.73691,32.57232,23.725Z" transform="translate(-51.00537 -148.13368)"/><path class="cls-5" d="M426.494,357.96279l171.48264-.052c12.39962,0,20.03982,8.93092,23.45091,10.02472-6.05092-9.087-19.59506-20.32671-31.3946-20.32671H408.79005c-15.27949,0-28.64739,9.73686-32.57235,23.725l-2.46,8.76786H395.553C400.81242,368.54024,412.89262,357.96279,426.494,357.96279Z" transform="translate(-51.00537 -148.13368)"/><path class="cls-4" d="M625.06543,380.10169H373.75761l2.46016-8.76792c3.92486-13.98806,17.29279-23.725,32.57233-23.725H590.033c15.27953,0,28.64746,9.73691,32.57232,23.725Z" transform="translate(-51.00537 -148.13368)"/><path class="cls-6" d="M469.41379,179.61836h41.70037A13.45174,13.45174,0,0,1,524.5659,193.0701v6.405a0,0,0,0,1,0,0H455.96206a0,0,0,0,1,0,0v-6.405A13.45174,13.45174,0,0,1,469.41379,179.61836Z"/><path class="cls-6" d="M469.41379,179.61836h41.70037A13.45174,13.45174,0,0,1,524.5659,193.0701v6.405a0,0,0,0,1,0,0H455.96206a0,0,0,0,1,0,0v-6.405A13.45174,13.45174,0,0,1,469.41379,179.61836Z"/><path class="cls-5" d="M507.08286,347.394a12.8172,12.8172,0,0,1,12.81728-12.81716h42.9694a12.81109,12.81109,0,0,1,12.70178,11.18355v-5.19113A12.81719,12.81719,0,0,0,562.75405,327.752H519.78464a12.8171,12.8171,0,0,0-12.81716,12.81717v7.03957h.11538Z" transform="translate(-51.00537 -148.13368)"/><path class="cls-10" d="M491.2746,582.40711c-10.623,0-29.76074-7.5-35.93945-27.61718a55.60107,55.60107,0,0,1,6.71582-50.21875c7.37988-10.57813,17.47461-16.64551,27.69531-16.64551a26.37041,26.37041,0,0,1,9.23926,1.6914l.14746.05567.1377.07715c2.126,1.20215,3.33984,2.60937,3.71093,4.30468.63282,2.88965-1.32714,5.60547-3.80957,9.04395-4.97949,6.90039-11.7998,16.34961-5.09668,33.79,7.76758,20.21387,7.81055,39.38867,2.99121,43.95508C495.96991,581.88172,494.02167,582.40711,491.2746,582.40711Z" transform="translate(-51.00537 -148.13368)"/><path class="cls-4" d="M469.41379,179.61836h41.70037A13.45174,13.45174,0,0,1,524.5659,193.0701v6.405a0,0,0,0,1,0,0H455.96206a0,0,0,0,1,0,0v-6.405A13.45174,13.45174,0,0,1,469.41379,179.61836Z"/><path class="cls-10" d="M518.77265,582.14442a13.62856,13.62856,0,0,1-9.97754-4.11035,11.01835,11.01835,0,0,1-3.01562-8.32227c.52734-7.97949-2.19532-15.6123-4.82813-22.99316-2.40039-6.7295-4.668-13.08594-4.68359-19.70508-.05762-24.36426,16.28613-32.08594,18.30371-32.94531a8.36914,8.36914,0,0,1,4.376-1.168c6.501,0,14.46973,6.39551,20.29981,16.29394a57.66185,57.66185,0,0,1,.33887,57.48145c-5.44825,9.83105-13.03418,15.46875-20.8125,15.46875Z" transform="translate(-51.00537 -148.13368)"/><path class="cls-13" d="M499.28619,488.4907c11.792,6.66592-18.08375,14.8756-6.07838,46.11607,8.19839,21.33389,6.99829,38.45412,3.48241,41.78457s-30.94369-.64717-38.45887-25.23954C445.82729,517.43717,472.7952,478.60738,499.28619,488.4907Z" transform="translate(-51.00537 -148.13368)"/><path class="cls-13" d="M516.48373,492.85558s-17.27341,6.8109-17.21564,31.15285c.03227,13.60883,10.53543,27.25888,9.50748,42.83535-.71406,10.81921,17.81331,17.9617,30.0613-4.13758C560.4192,523.76511,528.4311,485.31066,516.48373,492.85558Z" transform="translate(-51.00537 -148.13368)"/><path class="cls-13" d="M488.21593,629.96271c-4.61,4.42407-4.82838,13.47073-.71942,16.83436a6.21812,6.21812,0,0,0,3.9568,1.39513c3.79422-.11265,6.74755-4.25362,7.62581-7.69776,1.37519-5.39285-1.53009-12.24238-5.5395-12.87756C491.06831,627.22538,488.89734,629.30881,488.21593,629.96271Zm6.115,9.9562c-.10524.2949-.74168,2.07868-2.0863,2.26616a2.31022,2.31022,0,0,1-1.7266-.6115c-1.2124-1.10354-1.13555-3.63021.10791-6.33087.77063-1.22589,1.35628-1.46813,1.76257-1.43883C493.77581,633.904,495.25533,637.32824,494.331,639.91891Z" transform="translate(-51.00537 -148.13368)"/><path class="cls-13" d="M500.40955,659.85381c-2.1331-1.43268-.3153-4.57251.90574-31.761.33687-7.50031,1.91046-14.311,5.82229-17.01547a8.08485,8.08485,0,0,1,5.6824-1.66172,5.05975,5.05975,0,0,1,2.94722,1.368c1.8759,1.89191,1.26762,4.76206,1.20369,5.04189a4.93185,4.93185,0,0,0-3.10529-.57553,6.00433,6.00433,0,0,0-3.10523,1.87048c-3.80469,4.13608-3.364,21.29466-3.364,21.29466.36631,14.26237,1.09648,19.2567-1.68206,21.29481A4.79025,4.79025,0,0,1,500.40955,659.85381Z" transform="translate(-51.00537 -148.13368)"/><path class="cls-13" d="M511.77033,659.55866c-1.84779-1.24106-.27313-3.96093.78459-27.51289.29182-6.49713,1.65494-12.39687,5.04355-14.73962a7.00348,7.00348,0,0,1,4.92238-1.43946,4.383,4.383,0,0,1,2.553,1.185,4.98122,4.98122,0,0,1,1.04269,4.36752,4.27227,4.27227,0,0,0-2.69-.49855,5.20127,5.20127,0,0,0-2.6899,1.6203c-3.2958,3.58288-2.914,18.44647-2.914,18.44647.31732,12.35474.94983,16.68107-1.45708,18.44658A4.14954,4.14954,0,0,1,511.77033,659.55866Z" transform="translate(-51.00537 -148.13368)"/><path class="cls-13" d="M528.64715,646.44161a3.78069,3.78069,0,0,1-2.97356-.38367c-2.09446-1.52022-1.4349-6.84728,1.247-9.88.37411-.42308,2.74924-3.01976,4.79614-2.30213a2.06805,2.06805,0,0,1,1.43883,1.53477c.12323,1.65318-3.36482,3.60628-6.52273,3.83686a9.40463,9.40463,0,0,1-3.93277-.57553c-.92533,1.29172-.77871,2.07981-.6715,2.39807.645,1.91467,4.93039,1.75445,5.51218,1.7266.37306-.01785,7.87213-.47908,9.25982-5.56351a6.19076,6.19076,0,0,0-1.60351-6.17528c-2.57262-2.1853-6.57775-.66395-7.12539-.44335-7.0526,2.841-10.34548,14.97493-6.71453,18.60894,2.1137,2.1155,7.04789,1.83029,9.4004-.47964,1.60182-1.57284,1.99434-4.07225,1.54232-4.35057C531.87034,644.12873,530.85655,645.8699,528.64715,646.44161Z" transform="translate(-51.00537 -148.13368)"/><path class="cls-13" d="M543.69666,647.687a3.36329,3.36329,0,0,1-2.64526-.3413c-1.8761-1.36159-1.13315-6.0509,1.10934-8.78918.34509-.42135,2.00734-2.45111,3.36875-1.99487a1.84957,1.84957,0,0,1,1.15107,1.7266c-.05782,1.59245-2.75964,2.78476-4.77584,2.99886a7.33708,7.33708,0,0,1-3.49858-.512c-.82319,1.1491-.69272,1.85022-.59738,2.13331.50127,1.48854,3.43915,1.6508,4.90362,1.536,2.61976-.20536,6.46527-1.75874,7.51727-5.29288.13279-.44616.92654-3.29382-.70627-5.1499-1.75351-1.99329-5.2391-1.63085-7.25529-.7973-5.85018,2.41858-8.64326,12.65362-5.1798,16.21087,1.98331,2.03706,6.36915,2.24452,8.48574.31977,1.45956-1.32727,1.784-3.61665,1.372-3.87027C546.564,645.62949,545.66213,647.17841,543.69666,647.687Z" transform="translate(-51.00537 -148.13368)"/><path class="cls-13" d="M531.57189,620.42524a6.24953,6.24953,0,0,1-1.67777,4.0502c-6.882,6.61776-30.72373-11.92844-37.44656-5.348-1.45436,1.42356-2.73385,4.63578-1.88994,5.51556.387.4034,1.05489.21533,2.89713.00674,1.62606-.18407,3.27124-.1429,4.90039-.2963,3.98412-.37517,10.06312,2.01679,16.3864,3.35544,1.59178.337,14.158,2.90594,17.167-.93135.37945-.48392,2.34288-2.98789,1.53487-4.60412l-.00007-.00014Z" transform="translate(-51.00537 -148.13368)"/><path class="cls-13" d="M461.59751,622.94067c4.26479,2.06924,5.69253,3.506,8.48912,3.16544,2.21888-.27024,5.07912-1.63253,5.89922-4.17262.32458-1.00522.5142-2.76656-.43165-3.741-1.442-1.48559-4.89991-.49976-6.85708.51993,0,0-.10707.05659-.19321.10356-8.65688,4.72134-11.41,23.53314-4.4124,29.3522a8.85744,8.85744,0,0,0,7.386,2.01437c.40425-.09689,3.93431-1.03136,4.79613-4.22057a5.46042,5.46042,0,0,0-.93524-4.78412c-1.28441-1.537-3.17407-1.55658-3.12946-2.08631.04616-.54789,2.13057-1.27728,3.9688-.80334,3.55374.91624,6.32961,6.36656,5.41959,11.127a11.51992,11.51992,0,0,1-4.94,7.00233,14.27837,14.27837,0,0,1-12.278,2.01437c-6.75451-2.05547-9.40932-8.86017-9.97594-10.31165-4.90566-12.56766,4.32747-29.76092,15.75523-33.38094.84194-.26672,7.023-2.22471,9.64117.73874,2.22787,2.52165.9743,7.58605-1.51176,10.43621-2.75093,3.15378-6.83333,3.39279-7.8656,3.4532a15.32551,15.32551,0,0,1-5.46757-.8633c-5.10027-1.43957-5.434-3.03391-8.24933-3.4532-5.41143-.8059-8.772,4.40046-10.55147,3.0695-1.57569-1.1785-.85564-6.69285,2.11034-8.44116C451.24248,617.92383,456.02238,620.23566,461.59751,622.94067Z" transform="translate(-51.00537 -148.13368)"/><path class="cls-4" d="M576.66158,202.37583c-7.75452,10.86749-16.4112,13.625-22.95045,26.25785-1.80457,3.4862-7.10621,13.728-5.5,26,2.12609,16.24426,14.30786,20.40124,15.5,35,.54211,6.63794-1.25318,14.63623-8,24" transform="translate(-51.00537 -148.13368)"/><path class="cls-4" d="M601.71113,151.13368c6.10644,25.31933,1.72094,40.90441-3.5,50.5-9.5243,17.50488-26.82862,24.26672-28,41.88879-.5531,8.32019,2.73925,15.3136,5.3601,19.66833" transform="translate(-51.00537 -148.13368)"/><path class="cls-4" d="M544.37779,211.13368s-12,14-12,26.66666" transform="translate(-51.00537 -148.13368)"/></g></g></svg>