<svg xmlns="http://www.w3.org/2000/svg" viewBox="0 0 792.81787 483.58553"><defs><style>.cls-1{isolation:isolate;}.cls-2{fill:#cb0000;stroke:#cb0000;}.cls-2,.cls-20,.cls-25,.cls-3,.cls-6{stroke-linecap:round;}.cls-2,.cls-20,.cls-21,.cls-25,.cls-3,.cls-6{stroke-linejoin:round;}.cls-2,.cls-25,.cls-3{stroke-width:8px;}.cls-20,.cls-21,.cls-25,.cls-3,.cls-6{fill:none;stroke:#340600;}.cls-4,.cls-7,.cls-8{fill:#bfbfbf;}.cls-5{fill:#fff;}.cls-6{stroke-width:6px;}.cls-24,.cls-7{mix-blend-mode:screen;}.cls-12,.cls-23,.cls-8{mix-blend-mode:multiply;}.cls-9{fill:#606060;}.cls-10{fill:#1d4928;}.cls-11,.cls-12{fill:#c4c4c4;}.cls-12{opacity:0.77;}.cls-13{fill:#47a942;}.cls-14{fill:#81c347;}.cls-15{fill:#cadb2a;}.cls-16{fill:#26863f;}.cls-17{fill:#cc0;}.cls-18{fill:#245b34;}.cls-19{fill:#ff9e03;}.cls-20{stroke-width:10px;}.cls-21{stroke-width:3px;}.cls-22,.cls-23,.cls-24{fill:#06a0ff;}.cls-23{opacity:0.27;}.cls-24{opacity:0.38;}.cls-25{opacity:0.58;}</style></defs><g class="cls-1"><g id="Layer_1" data-name="Layer 1"><rect class="cls-2" x="613.47833" y="417.44794" width="18.73356" height="17.88774" transform="translate(939.19581 -449.56172) rotate(90)"/><line class="cls-3" x1="33.57076" y1="273.91573" x2="201.13351" y2="273.91573"/><rect class="cls-4" x="107.79954" y="254.95051" width="18.83023" height="39.32194" rx="4.30597"/><path class="cls-5" d="M219.7417,508.79291a4.30148,4.30148,0,0,0-1.90106,3.572v30.71a4.30133,4.30133,0,0,0,1.90112,3.572c3.24146-2.89215,5.55066-10.26379,5.55066-18.927C225.29242,519.05658,222.98309,511.685,219.7417,508.79291Z" transform="translate(-110.0411 -253.10842)"/><rect class="cls-6" x="107.79954" y="254.95051" width="18.83023" height="39.32194" rx="4.30597"/><polygon class="cls-5" points="209.655 382.732 190.92 389.551 110.605 168.888 139.749 158.281 192.163 302.285 209.655 382.732"/><polygon class="cls-4" points="192.163 302.285 139.749 158.281 131.802 161.173 183.163 302.285 200.655 382.732 189.867 386.658 190.92 389.551 209.655 382.732 192.163 302.285"/><path class="cls-4" d="M250.79022,410.38916l-29.144,10.60754,22.62256,62.155a22.70013,22.70013,0,0,0,21.39239-17.19519c.73389-3.07922,1.41455-6.08954,2.05829-9.05481Z" transform="translate(-110.0411 -253.10842)"/><line class="cls-3" x1="220.1545" y1="450.44144" x2="230.76208" y2="479.58553"/><rect class="cls-4" x="316.88501" y="667.51637" width="13.29192" height="35.44513" transform="translate(-324.89532 -101.12935) rotate(-20)"/><polygon class="cls-3" points="209.655 382.732 190.92 389.551 110.605 168.888 139.749 158.281 192.163 302.285 209.655 382.732"/><rect class="cls-3" x="316.88501" y="667.51637" width="13.29192" height="35.44513" transform="translate(-324.89532 -101.12935) rotate(-20)"/><circle class="cls-5" cx="206.13351" cy="398.96477" r="19.93789"/><path class="cls-4" d="M321.32776,643.86694a19.93791,19.93791,0,0,0-11.91632,25.55463c.20282.55725.43817,1.09277.68414,1.62036A19.915,19.915,0,0,0,334.9101,645.254c-.20282-.55731-.43818-1.09278-.68415-1.62036A19.82875,19.82875,0,0,0,321.32776,643.86694Z" transform="translate(-110.0411 -253.10842)"/><circle class="cls-3" cx="206.13351" cy="398.96477" r="19.93789"/><polygon class="cls-5" points="25.107 382.732 43.842 389.551 124.157 168.888 95.013 158.281 42.6 302.285 25.107 382.732"/><polygon class="cls-5" points="25.107 382.732 43.842 389.551 124.157 168.888 95.013 158.281 42.6 302.285 25.107 382.732"/><polygon class="cls-4" points="95.013 158.281 93.96 161.173 115.157 168.888 35.895 386.658 43.843 389.551 124.157 168.888 95.013 158.281"/><path class="cls-4" d="M207.054,410.38916l-16.92853,46.51068c.64923,2.992,1.33655,6.03082,2.07763,9.1402a22.67472,22.67472,0,0,0,21.37244,17.11169l22.62256-62.155Z" transform="translate(-110.0411 -253.10842)"/><polygon class="cls-3" points="25.107 382.732 43.842 389.551 124.157 168.888 95.013 158.281 42.6 302.285 25.107 382.732"/><rect class="cls-4" x="124.66735" y="667.51637" width="13.29192" height="35.44513" transform="translate(-89.69916 1120.95629) rotate(-160)"/><rect class="cls-3" x="124.66735" y="667.51637" width="13.29192" height="35.44513" transform="translate(-89.69916 1120.95629) rotate(-160)"/><line class="cls-3" x1="14.60758" y1="450.44144" x2="4" y2="479.58553"/><circle class="cls-5" cx="28.62856" cy="398.96477" r="19.93789"/><circle class="cls-5" cx="28.62856" cy="398.96477" r="19.93789"/><path class="cls-4" d="M157.40515,658.89233a19.87533,19.87533,0,0,0-.667-15.248,19.92042,19.92042,0,0,0-24.16455,27.38684A19.92226,19.92226,0,0,0,157.40515,658.89233Z" transform="translate(-110.0411 -253.10842)"/><circle class="cls-3" cx="28.62856" cy="398.96477" r="19.93789"/><path class="cls-4" d="M242.91133,473.16763H211.933a11.74185,11.74185,0,0,1-11.04975-8.7616c-5.51839-23.15375-9.31776-46.69687-8.90274-69.8759.16246-5.91761,5.8601-11.08313,11.75741-11.083H251.1064c5.89725-.00017,11.59489,5.16514,11.75742,11.083.415,23.17893-3.38437,46.72205-8.90276,69.8759A11.74225,11.74225,0,0,1,242.91133,473.16763Z" transform="translate(-110.0411 -253.10842)"/><path class="cls-5" d="M200.49648,464.406c-5.51837-23.15381-9.31781-46.697-8.90277-69.87592.16254-5.91785,5.86017-11.08313,11.75745-11.08295H237.1498a84.74743,84.74743,0,0,1-.66388,39.10413c-5.10339,20.169-11.695,47.767-32.2879,47.767A11.5246,11.5246,0,0,1,200.49648,464.406Z" transform="translate(-110.0411 -253.10842)"/><path class="cls-3" d="M242.91133,473.16763H211.933a11.74185,11.74185,0,0,1-11.04975-8.7616c-5.51839-23.15375-9.31776-46.69687-8.90274-69.8759.16246-5.91761,5.8601-11.08313,11.75741-11.083H251.1064c5.89725-.00017,11.59489,5.16514,11.75742,11.083.415,23.17893-3.38437,46.72205-8.90276,69.8759A11.74225,11.74225,0,0,1,242.91133,473.16763Z" transform="translate(-110.0411 -253.10842)"/><rect class="cls-4" x="99.30748" y="36.18758" width="35.44513" height="78.64389"/><rect class="cls-7" x="99.30748" y="36.18758" width="10" height="78.64389"/><rect class="cls-8" x="122.29223" y="36.18758" width="12.46038" height="78.64389"/><rect class="cls-3" x="99.30748" y="36.18758" width="35.44513" height="78.64389"/><rect class="cls-9" x="107.61493" y="114.83147" width="18.83023" height="15.50725"/><rect class="cls-3" x="107.61493" y="114.83147" width="18.83023" height="15.50725"/><line class="cls-6" x1="110.60506" y1="50.21794" x2="110.60506" y2="95.63202"/><circle class="cls-9" cx="118.85337" cy="174.94141" r="10.5"/><circle class="cls-3" cx="118.85337" cy="174.94141" r="10.5"/><path class="cls-10" d="M591.86982,391.41777c-54.16968,0-132.12613,0-186.29566,0A32.36626,32.36626,0,0,0,374.35,414.81707a97.14131,97.14131,0,0,0,0,53.1073,32.36625,32.36625,0,0,0,31.22415,23.39929H591.86987a15.44117,15.44117,0,0,0,15.447-14.35433,526.58316,526.58316,0,0,0,0-71.19723A15.44122,15.44122,0,0,0,591.86982,391.41777Z" transform="translate(-110.0411 -253.10842)"/><path class="cls-3" d="M591.86982,391.41777c-54.16968,0-132.12613,0-186.29566,0A32.36626,32.36626,0,0,0,374.35,414.81707a97.14131,97.14131,0,0,0,0,53.1073,32.36625,32.36625,0,0,0,31.22415,23.39929H591.86987a15.44117,15.44117,0,0,0,15.447-14.35433,526.58316,526.58316,0,0,0,0-71.19723A15.44122,15.44122,0,0,0,591.86982,391.41777Z" transform="translate(-110.0411 -253.10842)"/><path class="cls-3" d="M591.86982,391.41777c-54.16968,0-132.12613,0-186.29566,0A32.36626,32.36626,0,0,0,374.35,414.81707a97.14131,97.14131,0,0,0,0,53.1073,32.36625,32.36625,0,0,0,31.22415,23.39929H591.86987a15.44117,15.44117,0,0,0,15.447-14.35433,526.58316,526.58316,0,0,0,0-71.19723A15.44122,15.44122,0,0,0,591.86982,391.41777Z" transform="translate(-110.0411 -253.10842)"/><path class="cls-11" d="M473.95674,472.8069a167.76692,167.76692,0,0,1,0-62.87237h247.386c0,14.42761-3.22432,37.872-11.811,54.31687a15.993,15.993,0,0,1-14.19,8.5555Z" transform="translate(-110.0411 -253.10842)"/><path class="cls-12" d="M714.90375,409.93451c-.96,14.1369-4.38416,32.6001-11.51331,46.25354a15.993,15.993,0,0,1-14.19006,8.55548H472.62408q.56883,4.04314,1.33265,8.06335h221.385a15.993,15.993,0,0,0,14.19-8.55548c8.58673-16.44488,11.811-39.88928,11.811-54.31689Z" transform="translate(-110.0411 -253.10842)"/><path class="cls-3" d="M473.95674,472.8069a167.76692,167.76692,0,0,1,0-62.87237h247.386c0,14.42761-3.22432,37.872-11.811,54.31687a15.993,15.993,0,0,1-14.19,8.5555Z" transform="translate(-110.0411 -253.10842)"/><path class="cls-5" d="M720.54171,423.694a131.50416,131.50416,0,0,0,.80106-13.75948h-247.386q-1.30569,6.84453-2.02606,13.75948Z" transform="translate(-110.0411 -253.10842)"/><path class="cls-3" d="M720.54171,423.694a131.50416,131.50416,0,0,0,.80106-13.75948h-247.386q-1.30569,6.84453-2.02606,13.75948Z" transform="translate(-110.0411 -253.10842)"/><line class="cls-3" x1="371.24909" y1="172.56139" x2="357.37418" y2="219.69848"/><line class="cls-3" x1="397.41492" y1="172.56139" x2="383.54001" y2="219.69848"/><line class="cls-3" x1="423.58075" y1="172.56139" x2="409.70584" y2="219.69848"/><line class="cls-3" x1="449.74658" y1="172.56139" x2="435.87167" y2="219.69848"/><line class="cls-3" x1="475.91241" y1="172.56139" x2="462.0375" y2="219.69848"/><line class="cls-3" x1="502.07824" y1="172.56139" x2="488.20333" y2="219.69848"/><line class="cls-3" x1="528.24407" y1="172.56139" x2="514.36917" y2="219.69848"/><line class="cls-3" x1="554.40991" y1="172.56139" x2="540.535" y2="219.69848"/><line class="cls-3" x1="580.57574" y1="172.56139" x2="566.70083" y2="219.69848"/><path class="cls-13" d="M608.27375,425.66981q-.29694-9.95461-.95692-19.89769a15.4412,15.4412,0,0,0-15.447-14.3543c-54.1697-.00007-132.12617-.00007-186.29565,0A32.3663,32.3663,0,0,0,374.35,414.81708a98.57039,98.57039,0,0,0-2.40579,10.85273Z" transform="translate(-110.0411 -253.10842)"/><path class="cls-14" d="M409.04633,405.80853c54.16949-.00006,132.126-.00006,186.29565,0a15.484,15.484,0,0,1,12.26569,6.015c-.09656-1.68384-.17682-3.36835-.29084-5.0514a15.44123,15.44123,0,0,0-15.447-14.3543c-54.16967-.00007-132.12616-.00007-186.29565,0A32.3663,32.3663,0,0,0,374.35,415.81708a98.57651,98.57651,0,0,0-2.40577,10.85272h6.7118A32.41669,32.41669,0,0,1,409.04633,405.80853Z" transform="translate(-110.0411 -253.10842)"/><path class="cls-15" d="M607.31683,406.77209a15.44123,15.44123,0,0,0-15.447-14.3543c-54.16967-.00007-132.12616-.00007-186.29565,0A32.3663,32.3663,0,0,0,374.35,415.81708a98.57651,98.57651,0,0,0-2.40577,10.85272h.18335c.28876-1.1969.59217-2.39191.92853-3.58221a32.3663,32.3663,0,0,1,31.22424-23.3993c54.1695-.00006,132.126-.00006,186.29566,0a15.47145,15.47145,0,0,1,14.2323,9.3664,15.54819,15.54819,0,0,1,2.79938,2.7688C607.51111,410.13965,607.43085,408.45514,607.31683,406.77209Z" transform="translate(-110.0411 -253.10842)"/><path class="cls-3" d="M608.27375,425.66981q-.29694-9.95461-.95692-19.89769a15.4412,15.4412,0,0,0-15.447-14.3543c-54.1697-.00007-132.12617-.00007-186.29565,0A32.3663,32.3663,0,0,0,374.35,414.81708a98.57039,98.57039,0,0,0-2.40579,10.85273Z" transform="translate(-110.0411 -253.10842)"/><path class="cls-13" d="M607.31683,476.96935q.73413-10.83454,1.00236-21.68731l-5.39435-3.4464-14.88756,9.51485-14.89178-9.51485-14.88807,9.51485-14.89229-9.51485-14.89461,9.51485-14.89235-9.51485-14.89265,9.51485-14.89432-9.51485-14.89671,9.51485-14.89417-9.51485-14.89562,9.51485-14.89614-9.51485-14.89119,9.51485-14.89512-9.51485L379.522,461.35049l-7.67564-4.903A98.50157,98.50157,0,0,0,374.35,467.92439a32.36627,32.36627,0,0,0,31.22415,23.39926H591.86987A15.44115,15.44115,0,0,0,607.31683,476.96935Z" transform="translate(-110.0411 -253.10842)"/><path class="cls-16" d="M607.45605,454.73059q-.25515,5.705-.6361,11.40515a15.44113,15.44113,0,0,1-15.447,14.35431H405.07727A32.365,32.365,0,0,1,374.11871,457.899l-2.27234-1.45148A98.50744,98.50744,0,0,0,374.35,467.92438a32.36629,32.36629,0,0,0,31.22418,23.39923H591.86987a15.44115,15.44115,0,0,0,15.447-14.35425q.73416-10.83462,1.00238-21.68732Z" transform="translate(-110.0411 -253.10842)"/><path class="cls-3" d="M607.31683,476.96935q.73413-10.83454,1.00236-21.68731l-5.39435-3.4464-14.88756,9.51485-14.89178-9.51485-14.88807,9.51485-14.89229-9.51485-14.89461,9.51485-14.89235-9.51485-14.89265,9.51485-14.89432-9.51485-14.89671,9.51485-14.89417-9.51485-14.89562,9.51485-14.89614-9.51485-14.89119,9.51485-14.89512-9.51485L379.522,461.35049l-7.67564-4.903A98.50157,98.50157,0,0,0,374.35,467.92439a32.36627,32.36627,0,0,0,31.22415,23.39926H591.86987A15.44115,15.44115,0,0,0,607.31683,476.96935Z" transform="translate(-110.0411 -253.10842)"/><circle class="cls-17" cx="369.86242" cy="189.09405" r="25.76938"/><circle class="cls-3" cx="369.86242" cy="189.09405" r="25.76938"/><rect class="cls-18" x="608.47833" y="464.68751" width="18.73356" height="17.88774" transform="translate(981.43539 -397.32215) rotate(90)"/><rect class="cls-3" x="608.47833" y="464.68751" width="18.73356" height="17.88774" transform="translate(981.43539 -397.32215) rotate(90)"/><rect class="cls-18" x="608.47833" y="406.44794" width="18.73356" height="17.88774" transform="translate(923.19581 -455.56172) rotate(90)"/><rect class="cls-3" x="608.47833" y="406.44794" width="18.73356" height="17.88774" transform="translate(923.19581 -455.56172) rotate(90)"/><line class="cls-3" x1="345.07349" y1="194.63147" x2="385.72177" y2="169.61607"/><line class="cls-3" x1="354.94857" y1="208.63763" x2="395.59684" y2="183.62223"/><rect class="cls-19" x="253.65407" y="4" width="533.79341" height="84.88512" rx="16.70162"/><rect class="cls-3" x="253.65407" y="4" width="533.79341" height="84.88512" rx="16.70162"/><line class="cls-20" x1="281.86558" y1="47.56469" x2="753.23597" y2="47.56469"/><line class="cls-21" x1="752.49562" y1="4" x2="752.49562" y2="21.07634"/><line class="cls-21" x1="706.10665" y1="4" x2="706.10665" y2="21.07634"/><line class="cls-21" x1="718.30524" y1="4" x2="718.30524" y2="12.91532"/><line class="cls-21" x1="740.64067" y1="4" x2="740.64067" y2="12.91532"/><line class="cls-21" x1="729.47295" y1="4" x2="729.47295" y2="16.39449"/><line class="cls-21" x1="659.71768" y1="4" x2="659.71768" y2="21.07634"/><line class="cls-21" x1="671.91627" y1="4" x2="671.91627" y2="12.91532"/><line class="cls-21" x1="694.2517" y1="4" x2="694.2517" y2="12.91532"/><line class="cls-21" x1="683.08398" y1="4" x2="683.08398" y2="16.39449"/><line class="cls-21" x1="613.32871" y1="4" x2="613.32871" y2="21.07634"/><line class="cls-21" x1="625.5273" y1="4" x2="625.5273" y2="12.91532"/><line class="cls-21" x1="647.86273" y1="4" x2="647.86273" y2="12.91532"/><line class="cls-21" x1="636.69501" y1="4" x2="636.69501" y2="16.39449"/><line class="cls-21" x1="566.93975" y1="4" x2="566.93975" y2="21.07634"/><line class="cls-21" x1="579.13833" y1="4" x2="579.13833" y2="12.91532"/><line class="cls-21" x1="601.47376" y1="4" x2="601.47376" y2="12.91532"/><line class="cls-21" x1="590.30604" y1="4" x2="590.30604" y2="16.39449"/><line class="cls-21" x1="520.55078" y1="4" x2="520.55078" y2="21.07634"/><line class="cls-21" x1="532.74936" y1="4" x2="532.74936" y2="12.91532"/><line class="cls-21" x1="555.08479" y1="4" x2="555.08479" y2="12.91532"/><line class="cls-21" x1="543.91707" y1="4" x2="543.91707" y2="16.39449"/><line class="cls-21" x1="474.16181" y1="4" x2="474.16181" y2="21.07634"/><line class="cls-21" x1="486.36039" y1="4" x2="486.36039" y2="12.91532"/><line class="cls-21" x1="508.69582" y1="4" x2="508.69582" y2="12.91532"/><line class="cls-21" x1="497.5281" y1="4" x2="497.5281" y2="16.39449"/><line class="cls-21" x1="427.77284" y1="4" x2="427.77284" y2="21.07634"/><line class="cls-21" x1="439.97142" y1="4" x2="439.97142" y2="12.91532"/><line class="cls-21" x1="462.30685" y1="4" x2="462.30685" y2="12.91532"/><line class="cls-21" x1="451.13913" y1="4" x2="451.13913" y2="16.39449"/><line class="cls-21" x1="381.38387" y1="4" x2="381.38387" y2="21.07634"/><line class="cls-21" x1="393.58245" y1="4" x2="393.58245" y2="12.91532"/><line class="cls-21" x1="415.91788" y1="4" x2="415.91788" y2="12.91532"/><line class="cls-21" x1="404.75016" y1="4" x2="404.75016" y2="16.39449"/><line class="cls-21" x1="334.9949" y1="4" x2="334.9949" y2="21.07634"/><line class="cls-21" x1="347.19348" y1="4" x2="347.19348" y2="12.91532"/><line class="cls-21" x1="369.52891" y1="4" x2="369.52891" y2="12.91532"/><line class="cls-21" x1="358.36119" y1="4" x2="358.36119" y2="16.39449"/><line class="cls-21" x1="288.60593" y1="4" x2="288.60593" y2="21.07634"/><line class="cls-21" x1="300.80451" y1="4" x2="300.80451" y2="12.91532"/><line class="cls-21" x1="323.13994" y1="4" x2="323.13994" y2="12.91532"/><line class="cls-21" x1="311.97222" y1="4" x2="311.97222" y2="16.39449"/><path class="cls-19" d="M889.53431,454.43059,537.68293,698.63852a6,6,0,0,0,3.32467,10.99465H894.859a4,4,0,0,0,4-4V459.42525A6,6,0,0,0,889.53431,454.43059ZM685.41552,659.80127,849.02736,541.46118V659.80127Z" transform="translate(-110.0411 -253.10842)"/><path class="cls-3" d="M889.53431,454.43059,537.68293,698.63852a6,6,0,0,0,3.32467,10.99465H894.859a4,4,0,0,0,4-4V459.42525A6,6,0,0,0,889.53431,454.43059ZM685.41552,659.80127,849.02736,541.46118V659.80127Z" transform="translate(-110.0411 -253.10842)"/><line class="cls-21" x1="767.73597" y1="456.33986" x2="767.73597" y2="439.77481"/><line class="cls-21" x1="722.73597" y1="456.33986" x2="722.73597" y2="439.77481"/><line class="cls-21" x1="734.5693" y1="456.33986" x2="734.5693" y2="447.69148"/><line class="cls-21" x1="756.23597" y1="456.33986" x2="756.23597" y2="447.69148"/><line class="cls-21" x1="745.40264" y1="456.33986" x2="745.40264" y2="444.31648"/><line class="cls-21" x1="677.73597" y1="456.33986" x2="677.73597" y2="439.77481"/><line class="cls-21" x1="689.5693" y1="456.33986" x2="689.5693" y2="447.69148"/><line class="cls-21" x1="711.23597" y1="456.33986" x2="711.23597" y2="447.69148"/><line class="cls-21" x1="700.40264" y1="456.33986" x2="700.40264" y2="444.31648"/><line class="cls-21" x1="632.73597" y1="456.33986" x2="632.73597" y2="439.77481"/><line class="cls-21" x1="644.5693" y1="456.33986" x2="644.5693" y2="447.69148"/><line class="cls-21" x1="666.23597" y1="456.33986" x2="666.23597" y2="447.69148"/><line class="cls-21" x1="655.40264" y1="456.33986" x2="655.40264" y2="444.31648"/><line class="cls-21" x1="587.73597" y1="456.33986" x2="587.73597" y2="439.77481"/><line class="cls-21" x1="599.5693" y1="456.33986" x2="599.5693" y2="447.69148"/><line class="cls-21" x1="621.23597" y1="456.33986" x2="621.23597" y2="447.69148"/><line class="cls-21" x1="610.40264" y1="456.33986" x2="610.40264" y2="444.31648"/><line class="cls-21" x1="542.73597" y1="456.33986" x2="542.73597" y2="439.77481"/><line class="cls-21" x1="554.5693" y1="456.33986" x2="554.5693" y2="447.69148"/><line class="cls-21" x1="576.23597" y1="456.33986" x2="576.23597" y2="447.69148"/><line class="cls-21" x1="565.40264" y1="456.33986" x2="565.40264" y2="444.31648"/><line class="cls-21" x1="497.73597" y1="456.33986" x2="497.73597" y2="439.77481"/><line class="cls-21" x1="509.5693" y1="456.33986" x2="509.5693" y2="447.69148"/><line class="cls-21" x1="531.23597" y1="456.33986" x2="531.23597" y2="447.69148"/><line class="cls-21" x1="520.40264" y1="456.33986" x2="520.40264" y2="444.31648"/><line class="cls-21" x1="452.73597" y1="456.33986" x2="452.73597" y2="439.77481"/><line class="cls-21" x1="464.5693" y1="456.33986" x2="464.5693" y2="447.69148"/><line class="cls-21" x1="486.23597" y1="456.33986" x2="486.23597" y2="447.69148"/><line class="cls-21" x1="475.40264" y1="456.33986" x2="475.40264" y2="444.31648"/><line class="cls-21" x1="787.92383" y1="256.05071" x2="771.35878" y2="256.05071"/><line class="cls-21" x1="787.92383" y1="244.21738" x2="779.27545" y2="244.21738"/><line class="cls-21" x1="787.92383" y1="222.55071" x2="779.27545" y2="222.55071"/><line class="cls-21" x1="787.92383" y1="233.38405" x2="775.90045" y2="233.38405"/><line class="cls-21" x1="787.92383" y1="301.05071" x2="771.35878" y2="301.05071"/><line class="cls-21" x1="787.92383" y1="289.21738" x2="779.27545" y2="289.21738"/><line class="cls-21" x1="787.92383" y1="267.55071" x2="779.27545" y2="267.55071"/><line class="cls-21" x1="787.92383" y1="278.38405" x2="775.90045" y2="278.38405"/><line class="cls-21" x1="787.92383" y1="346.05071" x2="771.35878" y2="346.05071"/><line class="cls-21" x1="787.92383" y1="334.21738" x2="779.27545" y2="334.21738"/><line class="cls-21" x1="787.92383" y1="312.55071" x2="779.27545" y2="312.55071"/><line class="cls-21" x1="787.92383" y1="323.38405" x2="775.90045" y2="323.38405"/><line class="cls-21" x1="787.92383" y1="391.05071" x2="771.35878" y2="391.05071"/><line class="cls-21" x1="787.92383" y1="379.21738" x2="779.27545" y2="379.21738"/><line class="cls-21" x1="787.92383" y1="357.55071" x2="779.27545" y2="357.55071"/><line class="cls-21" x1="787.92383" y1="368.38405" x2="775.90045" y2="368.38405"/><line class="cls-21" x1="787.92383" y1="436.05071" x2="771.35878" y2="436.05071"/><line class="cls-21" x1="787.92383" y1="424.21738" x2="779.27545" y2="424.21738"/><line class="cls-21" x1="787.92383" y1="402.55071" x2="779.27545" y2="402.55071"/><line class="cls-21" x1="787.92383" y1="413.38405" x2="775.90045" y2="413.38405"/><rect class="cls-5" x="264.51738" y="296.31922" width="162.57067" height="76.98351" rx="10.69855"/><rect class="cls-4" x="274.83064" y="296.31922" width="125.44466" height="76.98351" rx="10.69855"/><rect class="cls-3" x="264.51738" y="296.31922" width="162.57067" height="76.98351" rx="10.69855"/><rect class="cls-22" x="284.58843" y="288.88405" width="105.68686" height="90.66667" rx="5.4953"/><rect class="cls-23" x="284.58843" y="367.22491" width="105.68686" height="12.3258" rx="5.4953"/><rect class="cls-24" x="284.58843" y="290.15632" width="105.68686" height="12.3258" rx="5.4953"/><rect class="cls-3" x="284.58843" y="288.88405" width="105.68686" height="90.66667" rx="5.4953"/><line class="cls-25" x1="305.9589" y1="317.22491" x2="360.94406" y2="317.22491"/><line class="cls-25" x1="305.9589" y1="334.81097" x2="328.9589" y2="334.81097"/></g></g></svg>