<svg xmlns="http://www.w3.org/2000/svg" viewBox="0 0 750.32568 538.00792"><defs><style>.cls-1{isolation:isolate;}.cls-2{opacity:0.15;}.cls-3,.cls-4{fill:none;}.cls-20,.cls-3{stroke:#474747;}.cls-18,.cls-20,.cls-3,.cls-4{stroke-linecap:round;stroke-linejoin:round;stroke-width:6px;}.cls-4{stroke:#313031;}.cls-5{fill:#efab59;}.cls-6,.cls-7,.cls-8{fill:#fdba61;}.cls-6{opacity:0.48;}.cls-11,.cls-15,.cls-6,.cls-8{mix-blend-mode:multiply;}.cls-11,.cls-16,.cls-8{opacity:0.4;}.cls-9{fill:#ffcb92;}.cls-17,.cls-9{opacity:0.7;}.cls-10,.cls-11{fill:#8c7b5f;}.cls-12{opacity:0.2;}.cls-12,.cls-16,.cls-21{mix-blend-mode:screen;}.cls-13{fill:#fff;}.cls-14,.cls-15{fill:#fb9437;}.cls-15{opacity:0.3;}.cls-18{fill:#a9a9a9;stroke:#fb9437;}.cls-19{fill:#d51c29;}.cls-20,.cls-21{fill:#6ab36f;}.cls-21{opacity:0.5;}</style></defs><g class="cls-1"><g id="Layer_1" data-name="Layer 1"><g class="cls-2"><line class="cls-3" x1="3" y1="535.00792" x2="747.32568" y2="535.00792"/><path class="cls-3" d="M196.15217,498.23323V416.887a52,52,0,0,1,52-52H382.429a52,52,0,0,1,52,52V499.0282" transform="translate(-97.83716 -179.71549)"/><path class="cls-3" d="M341.5717,318.51793h32.8712a16,16,0,0,1,16,16v176.211a0,0,0,0,1,0,0H325.5717a0,0,0,0,1,0,0v-176.211A16,16,0,0,1,341.5717,318.51793Z"/><rect class="cls-3" x="325.57171" y="510.72891" width="38.44219" height="24.02637"/><rect class="cls-3" x="70.59186" y="510.72891" width="38.44219" height="24.02637"/><path class="cls-3" d="M60.16284,318.51793H93.034a16,16,0,0,1,16,16v176.211a0,0,0,0,1,0,0H44.16284a0,0,0,0,1,0,0v-176.211A16,16,0,0,1,60.16284,318.51793Z"/><path class="cls-3" d="M293.62991,490.42485h61.90485a0,0,0,0,1,0,0V706.6622a0,0,0,0,1,0,0H293.62991a18.5835,18.5835,0,0,1-18.5835-18.5835V509.00835A18.5835,18.5835,0,0,1,293.62991,490.42485Z" transform="translate(815.99696 103.53745) rotate(90)"/><rect class="cls-3" x="292.46553" y="553.49408" width="45.65011" height="216.23735" transform="translate(879.06618 166.60667) rotate(90)"/><circle class="cls-4" cx="217.45342" cy="285.23187" r="7.61518"/><rect class="cls-3" x="443.53336" y="163.57294" width="104.4139" height="142.699" transform="translate(632.8256 -440.53336) rotate(90)"/><rect class="cls-3" x="340.47519" y="16.92194" width="114.85529" height="76.5702"/><polygon class="cls-3" points="361.125 78.141 379.355 46.566 397.584 78.141 361.125 78.141"/><polyline class="cls-3" points="388.469 62.354 400.598 41.346 421.842 78.141 397.584 78.141"/><circle class="cls-3" cx="429.96288" cy="38.44518" r="8.12108"/><polyline class="cls-3" points="719.547 135.421 640.197 135.421 640.197 174.101 719.547 174.101"/><line class="cls-3" x1="560.8482" y1="174.1011" x2="640.19744" y2="174.1011"/><line class="cls-3" x1="640.19744" y1="135.4206" x2="609.81409" y2="135.4206"/><rect class="cls-3" x="698.35998" y="353.8166" width="79.34924" height="38.6805" transform="translate(1378.23204 566.5982) rotate(-180)"/><polyline class="cls-3" points="707.206 212.968 640.197 212.968 640.197 251.648 665.872 251.648"/><rect class="cls-3" x="658.68535" y="392.6834" width="79.34924" height="38.6805" transform="translate(1298.88279 644.33181) rotate(-180)"/></g><path class="cls-5" d="M705.481,406.885H677.08417l4.97931,25.76044,21.418-2.76062a37.61171,37.61171,0,0,1,34.916,51.59472l-31.86182,77.7721,6.5456,33.86346,44.02643-109.9444C771.73682,446.63818,744.83368,406.885,705.481,406.885Z" transform="translate(-97.83716 -179.71549)"/><path class="cls-6" d="M681.68568,407.35872s30.05428-4.43909,48.38409,33.499c-12.221-8.1884-25.78412-13.62583-48.00629-8.21229C677.08417,406.885,681.68568,407.35872,681.68568,407.35872Z" transform="translate(-97.83716 -179.71549)"/><polygon class="cls-6" points="621.279 348.021 624.112 391.255 614.715 410.663 606.283 378.584 621.279 348.021"/><path class="cls-3" d="M705.481,406.885H677.08417l4.97931,25.76044,21.418-2.76062a37.61171,37.61171,0,0,1,34.916,51.59472l-31.86182,77.7721,6.5456,33.86346,44.02643-109.9444C771.73682,446.63818,744.83368,406.885,705.481,406.885Z" transform="translate(-97.83716 -179.71549)"/><path class="cls-7" d="M679.39177,714.72341H507.45794c-31.35034,0-55.17628-24.61113-49.95855-51.60495L510.711,387.82965H676.13875l53.21156,275.28881C734.568,690.11228,710.7421,714.72341,679.39177,714.72341Z" transform="translate(-97.83716 -179.71549)"/><path class="cls-7" d="M679.39177,714.72341H507.45794c-31.35034,0-55.17628-24.61113-49.95855-51.60495L510.711,387.82965H676.13875l53.21156,275.28881C734.568,690.11228,710.7421,714.72341,679.39177,714.72341Z" transform="translate(-97.83716 -179.71549)"/><path class="cls-7" d="M679.39177,714.72341H507.45794c-31.35034,0-55.17628-24.61113-49.95855-51.60495L510.711,387.82965H676.13875l53.21156,275.28881C734.568,690.11228,710.7421,714.72341,679.39177,714.72341Z" transform="translate(-97.83716 -179.71549)"/><path class="cls-8" d="M556.50031,680.78729l9.14059-268.14408.84586-24.81356H510.71094L457.49939,663.11847c-5.21771,26.99377,18.60821,51.60492,49.95856,51.60492H610.77368C581.77893,714.72339,555.87726,699.06451,556.50031,680.78729Z" transform="translate(-97.83716 -179.71549)"/><path class="cls-8" d="M511.70129,673.55511,545.1662,387.82965H510.71094L457.49939,663.11847c-5.21771,26.99377,18.60821,51.60492,49.95856,51.60492h59.355C535.46265,714.72339,509.1344,695.47144,511.70129,673.55511Z" transform="translate(-97.83716 -179.71549)"/><rect class="cls-9" x="412.77804" y="210.11414" width="167.14448" height="6.38586"/><path class="cls-3" d="M679.39177,714.72341H507.45794c-31.35034,0-55.17628-24.61113-49.95855-51.60495L510.711,387.82965H676.13875l53.21156,275.28881C734.568,690.11228,710.7421,714.72341,679.39177,714.72341Z" transform="translate(-97.83716 -179.71549)"/><path class="cls-10" d="M676.23452,387.82964a117.748,117.748,0,0,0-165.61933,0Z" transform="translate(-97.83716 -179.71549)"/><path class="cls-10" d="M676.23452,387.82964a117.748,117.748,0,0,0-165.61933,0Z" transform="translate(-97.83716 -179.71549)"/><path class="cls-11" d="M510.61517,387.82959H676.2345a117.07387,117.07387,0,0,0-14.33124-8.94237l-52.29859-3.90372a250.46207,250.46207,0,0,0-39.18773.15229l-45.47053,3.75143A117.07387,117.07387,0,0,0,510.61517,387.82959Z" transform="translate(-97.83716 -179.71549)"/><g class="cls-12"><path class="cls-13" d="M650.43976,368.5c.11816,2.81052-24.70911-6.3093-57.01489-6.12619-32.30616-.18308-57.13269,8.93692-57.0149,6.12619-.11761-2.43622,24.70893-15.80933,57.0149-15.62619C625.731,352.69083,650.5575,366.06387,650.43976,368.5Z" transform="translate(-97.83716 -179.71549)"/></g><path class="cls-3" d="M676.23452,387.82964a117.748,117.748,0,0,0-165.61933,0Z" transform="translate(-97.83716 -179.71549)"/><path class="cls-14" d="M497.41121,458.63561l-36.168-61.24783a5.01043,5.01043,0,0,1,4.31435-7.55814H510.6152Z" transform="translate(-97.83716 -179.71549)"/><path class="cls-15" d="M500.02173,389.82959l-4.38228,22.836C494.23371,419.99088,478.79272,425.42269,475,419l-11.447-21c-3.87893,0-4.28223-3.95232-2.30987-.61227l36.168,61.24789,13.204-68.806Z" transform="translate(-97.83716 -179.71549)"/><path class="cls-9" d="M461.24316,394.45077l1.70441,1.76473h45.66327l2.00433-6.38591H465.5575C461.67859,389.82959,459.27081,392.40863,461.24316,394.45077Z" transform="translate(-97.83716 -179.71549)"/><path class="cls-3" d="M497.41121,458.63561l-36.168-61.24783a5.01043,5.01043,0,0,1,4.31435-7.55814H510.6152Z" transform="translate(-97.83716 -179.71549)"/><path class="cls-3" d="M569.01154,356.33306V344.2628a24.41328,24.41328,0,0,1,24.41329-24.41328h0a24.41328,24.41328,0,0,1,24.41328,24.41328v12.07026" transform="translate(-97.83716 -179.71549)"/><line class="cls-3" x1="554.94277" y1="258.33667" x2="586.46561" y2="443.28451"/><path class="cls-8" d="M470.33732,552.63228,448.719,658.55331c-3.654,17.90321,6.94586,34.68773,24.38886,43.14728,32.38818-20.40438,53.77874-55.27911,53.77874-94.80117V552.63228Z" transform="translate(-97.83716 -179.71549)"/><path class="cls-14" d="M291.88632,570.97076a49.20067,49.20067,0,0,0-49.20062,49.20069v.00006a49.20066,49.20066,0,0,0,49.20062,49.20068h.00012a49.20067,49.20067,0,0,0,49.20068-49.20068V570.97076Zm21.57159,49.20087A21.57137,21.57137,0,0,1,291.88656,641.743h-.00049a21.57137,21.57137,0,0,1-21.57135-21.57135v-.00006a21.57137,21.57137,0,0,1,21.57135-21.57135h21.57184Z" transform="translate(-97.83716 -179.71549)"/><path class="cls-14" d="M291.88632,570.97076a49.20067,49.20067,0,0,0-49.20062,49.20069v.00006a49.20066,49.20066,0,0,0,49.20062,49.20068h.00012a49.20067,49.20067,0,0,0,49.20068-49.20068V570.97076Zm21.57159,49.20087A21.57137,21.57137,0,0,1,291.88656,641.743h-.00049a21.57137,21.57137,0,0,1-21.57135-21.57135v-.00006a21.57137,21.57137,0,0,1,21.57135-21.57135h21.57184Z" transform="translate(-97.83716 -179.71549)"/><g class="cls-16"><path class="cls-14" d="M247.32284,624.99762v-.00006a49.20066,49.20066,0,0,1,49.20062-49.20068h43.56366v-6.82612h-49.2008a49.20067,49.20067,0,0,0-49.20062,49.20069v.00006a49.03808,49.03808,0,0,0,14.2265,34.59717A48.96428,48.96428,0,0,1,247.32284,624.99762Z" transform="translate(-97.83716 -179.71549)"/></g><path class="cls-6" d="M294.47306,570.97076c-.50732,0-3.59577.023-4.09938.03827l11.08743-.03827c-2.39429,0-3.4151,3.98831-5.599,17.0919-.8759,5.25539-9.96391,5.13116-14.71149,8.51733-5.47559,3.90541-10.5092,12.6279-10.5092,19.86906l.26061-1.20454c0,1.698-.37091-1.5849,0,0a21.56307,21.56307,0,0,1,19.47168-16.57874v.0108c.17812-.01235.35641-.02389.53444-.03663.32573-.02332.6514-.03964.978-.03964l21.57184-.00008v21.57141a21.559,21.559,0,0,1-18.6737,21.35437l.04853.17711c2.72315,9.909-6.4176,19.16667-16.21407,16.063-18.9371-5.99947-33.88338-24.38666-35.68682-42.52178-.16119,1.62073-.24615,3.26392-.24615,4.92707v.00006a49.20067,49.20067,0,0,0,49.20068,49.20068h.00006a48.96854,48.96854,0,0,0,22.53058-5.46637l.03186-.01629q.864-.44679,1.70758-.926l.04456-.02563a49.28965,49.28965,0,0,0,6.45642-4.38806l.02581-.02027c.45343-.36456.89808-.73889,1.33808-1.119.09448-.0816.18915-.1629.283-.24517q.61843-.54237,1.21875-1.10407c.1037-.09717.20563-.196.30847-.29407.40039-.38189.79742-.7669,1.18475-1.162a1.07989,1.07989,0,0,1,.48948-.36652,2.67211,2.67211,0,0,0,2.02131-1.82312,6.91868,6.91868,0,0,1,1.47237-2.40808c.269-.35223.5307-.71.7904-1.06958q.24856-.34406.492-.69183.36061-.518.70922-1.04444c.1709-.25915.33674-.52179.50281-.7843.2157-.34125.43225-.68146.63977-1.02832.1817-.30353.35407-.613.52936-.92065q.41886-.7359.81415-1.486c.2229-.42468.44549-.84936.65619-1.28125.14386-.2951.27795-.59552.41607-.89386.17286-.37316.34485-.7467.50855-1.12487.132-.30506.25812-.6128.384-.921q.23639-.57825.45874-1.1634c.11463-.30242.22778-.60522.33655-.91046.15106-.42352.2934-.85089.433-1.27972.08991-.27612.18317-.55054.26825-.8288.17975-.58746.3465-1.18042.50464-1.777.033-.12445.07154-.24664.10358-.37152.18371-.71576.34827-1.43914.50012-2.16717.05115-.24524.09387-.49335.14136-.73993.09668-.50171.18878-1.00488.27-1.5119.04535-.28308.08563-.56751.12616-.85212q.10372-.72875.186-1.46417c.0318-.28448.06323-.569.09021-.85492.04938-.52417.08734-1.05145.12012-1.58032.01544-.24884.0354-.49634.04712-.74615.03644-.77662.05926-1.55677.05926-2.34241V570.97076Z" transform="translate(-97.83716 -179.71549)"/><path class="cls-3" d="M291.88632,570.97076a49.20067,49.20067,0,0,0-49.20062,49.20069v.00006a49.20066,49.20066,0,0,0,49.20062,49.20068h.00012a49.20067,49.20067,0,0,0,49.20068-49.20068V570.97076Zm21.57159,49.20087A21.57137,21.57137,0,0,1,291.88656,641.743h-.00049a21.57137,21.57137,0,0,1-21.57135-21.57135v-.00006a21.57137,21.57137,0,0,1,21.57135-21.57135h21.57184Z" transform="translate(-97.83716 -179.71549)"/><path class="cls-7" d="M211.53642,371.561H423.82975a0,0,0,0,1,0,0v57.30033A106.14655,106.14655,0,0,1,317.68319,535.00792H317.683A106.14655,106.14655,0,0,1,211.53642,428.86136V371.561A0,0,0,0,1,211.53642,371.561Z"/><g class="cls-17"><polygon class="cls-18" points="387.933 481.552 355.499 481.552 355.499 448.883 371.716 430.602 387.933 448.883 387.933 481.552"/><line class="cls-18" x1="371.71587" y1="371.56104" x2="371.71587" y2="430.60179"/></g><path class="cls-8" d="M370.12472,608.57684V551.27649H309.37356v57.30035A106.14658,106.14658,0,0,0,415.52017,714.72339h.00018a106.14264,106.14264,0,0,0,30.37549-4.4184A106.18739,106.18739,0,0,1,370.12472,608.57684Z" transform="translate(-97.83716 -179.71549)"/><path class="cls-8" d="M341.189,608.57684V551.27649H309.37356v57.30035A106.14658,106.14658,0,0,0,415.52017,714.72339h.00018a106.98,106.98,0,0,0,15.90759-1.187A106.16964,106.16964,0,0,1,341.189,608.57684Z" transform="translate(-97.83716 -179.71549)"/><rect class="cls-9" x="211.53642" y="372.37775" width="212.29332" height="7.07807"/><path class="cls-3" d="M211.53642,371.561H423.82975a0,0,0,0,1,0,0v57.30033A106.14655,106.14655,0,0,1,317.68319,535.00792H317.683A106.14655,106.14655,0,0,1,211.53642,428.86136V371.561A0,0,0,0,1,211.53642,371.561Z"/><polygon class="cls-19" points="381.933 475.552 349.499 475.552 349.499 442.883 365.716 424.602 381.933 442.883 381.933 475.552"/><polygon class="cls-20" points="381.933 475.552 349.499 475.552 349.499 442.883 365.716 424.602 381.933 442.883 381.933 475.552"/><polygon class="cls-21" points="355.499 448.883 371.377 430.984 365.716 424.602 349.499 442.883 349.499 475.552 355.499 475.552 355.499 448.883"/><line class="cls-3" x1="365.71587" y1="371.56104" x2="365.71587" y2="424.60179"/><path class="cls-3" d="M405.11059,387.82964c-7.83066,11.17036-12.39638,29.73382-12.18191,40.023.7928,38.034,26.29976,38.05861,30.525,64.14732,1.118,6.903-1.083,18.02056-7.93344,35.73672" transform="translate(-97.83716 -179.71549)"/><path class="cls-3" d="M435.03024,422.23262C432.15176,427.63812,427.33237,440.5,445.45618,462c19.59517,23.24544,14.96782,47,8.74235,65.73672" transform="translate(-97.83716 -179.71549)"/><path class="cls-3" d="M356.39208,431.95762c-10.61215,25.37457,5.14177,42.26559,22.58941,60.62288,13.705,14.4195-.12167,37.73924-4.63583,42.47856" transform="translate(-97.83716 -179.71549)"/><line class="cls-3" x1="404.7651" y1="390.2553" x2="404.7651" y2="431.06984"/><polygon class="cls-3" points="381.933 475.552 349.499 475.552 349.499 442.883 365.716 424.602 381.933 442.883 381.933 475.552"/></g></g></svg>